<mxfile host="Electron" agent="Mozilla/5.0 (Windows NT 10.0; WOW64) AppleWebKit/537.36 (KHTML, like Gecko) draw.io/28.1.2 Chrome/138.0.7204.243 Electron/37.4.0 Safari/537.36" version="28.1.2" pages="3">
  <diagram id="iOf76uY-WFepkJUbuG9y" name="Técnicas de conservação">
    <mxGraphModel dx="946" dy="703" grid="1" gridSize="10" guides="1" tooltips="1" connect="1" arrows="1" fold="1" page="1" pageScale="1" pageWidth="1169" pageHeight="827" math="0" shadow="1">
      <root>
        <mxCell id="0" />
        <mxCell id="1" parent="0" />
        <mxCell id="YhBpW25rhfoBZGBujpxh-9" value="" style="edgeStyle=orthogonalEdgeStyle;rounded=0;orthogonalLoop=1;jettySize=auto;entryX=0.5;entryY=1;entryDx=0;entryDy=0;curved=1;sketch=1;curveFitting=1;jiggle=2;shadow=1;spacing=10;" parent="1" source="YhBpW25rhfoBZGBujpxh-1" target="YhBpW25rhfoBZGBujpxh-7" edge="1">
          <mxGeometry relative="1" as="geometry" />
        </mxCell>
        <mxCell id="YhBpW25rhfoBZGBujpxh-11" value="" style="edgeStyle=orthogonalEdgeStyle;rounded=0;orthogonalLoop=1;jettySize=auto;exitX=1;exitY=0.25;exitDx=0;exitDy=0;entryX=0.5;entryY=1;entryDx=0;entryDy=0;curved=1;sketch=1;curveFitting=1;jiggle=2;shadow=1;spacing=10;" parent="1" source="YhBpW25rhfoBZGBujpxh-1" target="YhBpW25rhfoBZGBujpxh-3" edge="1">
          <mxGeometry relative="1" as="geometry" />
        </mxCell>
        <mxCell id="YhBpW25rhfoBZGBujpxh-13" value="" style="edgeStyle=orthogonalEdgeStyle;rounded=0;orthogonalLoop=1;jettySize=auto;entryX=0.25;entryY=0;entryDx=0;entryDy=0;curved=1;sketch=1;curveFitting=1;jiggle=2;shadow=1;spacing=10;" parent="1" source="YhBpW25rhfoBZGBujpxh-1" target="YhBpW25rhfoBZGBujpxh-6" edge="1">
          <mxGeometry relative="1" as="geometry" />
        </mxCell>
        <mxCell id="YhBpW25rhfoBZGBujpxh-20" value="" style="edgeStyle=orthogonalEdgeStyle;rounded=0;orthogonalLoop=1;jettySize=auto;entryX=0.5;entryY=0;entryDx=0;entryDy=0;curved=1;shadow=1;sketch=1;curveFitting=1;jiggle=2;exitX=-0.012;exitY=0.626;exitDx=0;exitDy=0;exitPerimeter=0;spacing=10;" parent="1" source="YhBpW25rhfoBZGBujpxh-1" target="YhBpW25rhfoBZGBujpxh-5" edge="1">
          <mxGeometry relative="1" as="geometry" />
        </mxCell>
        <mxCell id="YhBpW25rhfoBZGBujpxh-1" value="Técnicas de&#xa;conservação&#xa;do solo" style="rounded=1;whiteSpace=wrap;fillColor=#2892D7;sketch=1;curveFitting=1;jiggle=2;shadow=1;spacing=10;convertToSvg=1;fontSize=20;fontStyle=1" parent="1" vertex="1">
          <mxGeometry x="463" y="348" width="243" height="131" as="geometry" />
        </mxCell>
        <mxCell id="YhBpW25rhfoBZGBujpxh-2" value="Curvas de nível&#xa;&#xa;• Técnica de cultivo que segue as linhas horizontais do terreno (as chamadas “curvas de nível”).&#xa;&#xa;• Diminui a velocidade da água das chuvas, reduzindo o risco de erosão laminar.&#xa;&#xa;• Ajuda na infiltração da água no solo e na recarga de lençóis freáticos.&#xa;&#xa;• Indicada para regiões com declividade moderada.&#xa;&#xa;• Pode ser combinada com plantio direto e terraceamento." style="rounded=1;whiteSpace=wrap;fillColor=#6DAEDB;sketch=1;curveFitting=1;jiggle=2;shadow=1;spacing=10;align=left;" parent="1" vertex="1">
          <mxGeometry x="30" y="30" width="220" height="300" as="geometry" />
        </mxCell>
        <mxCell id="YhBpW25rhfoBZGBujpxh-3" value="Rotação de culturas&#xa;&#xa;• Alternância planejada de diferentes espécies ao longo das safras em uma mesma área.&#xa;&#xa;• Interrompe o ciclo de pragas e doenças específicas de uma cultura.&#xa;&#xa;• Permite melhor uso dos nutrientes, evitando o empobrecimento do solo.&#xa;&#xa;• Melhora a fertilidade natural e reduz a necessidade de fertilizantes químicos.&#xa;&#xa;• Exemplo: soja → milho → leguminosa (como feijão ou ervilha)." style="rounded=1;whiteSpace=wrap;fillColor=#6DAEDB;sketch=1;curveFitting=1;jiggle=2;shadow=1;spacing=10;align=left;" parent="1" vertex="1">
          <mxGeometry x="840" y="30" width="270" height="270" as="geometry" />
        </mxCell>
        <mxCell id="YhBpW25rhfoBZGBujpxh-5" value="Culturas intercaladas&#xa;&#xa;• Plantio simultâneo de duas ou mais espécies em faixas alternadas ou misturadas.&#xa;&#xa;• Melhora o aproveitamento da luz solar, da água e dos nutrientes do solo.&#xa;&#xa;• Favorece o controle biológico natural, reduzindo a necessidade de agrotóxicos.&#xa;&#xa;• Aumenta a biodiversidade agrícola e a estabilidade do ecossistema.&#xa;&#xa;• Exemplo: milho intercalado com feijão ou mandioca." style="rounded=1;whiteSpace=wrap;fillColor=#6DAEDB;sketch=1;curveFitting=1;jiggle=2;shadow=1;spacing=10;align=left;fontStyle=0" parent="1" vertex="1">
          <mxGeometry x="70" y="479" width="230" height="301" as="geometry" />
        </mxCell>
        <mxCell id="YhBpW25rhfoBZGBujpxh-6" value="Cobertura orgânica&#xa;&#xa;• Protege o solo com materiais orgânicos (palha, folhas secas, restos de culturas, serragem).&#xa;&#xa;• Reduz o impacto direto da chuva e do sol sobre o solo.&#xa;&#xa;• Diminui a evaporação da água, mantendo a umidade por mais tempo.&#xa;&#xa;• Estimula a atividade de microrganismos e melhora a estrutura do solo.&#xa;&#xa;• Ajuda a controlar plantas invasoras e a conservar nutrientes." style="rounded=1;whiteSpace=wrap;fillColor=#6DAEDB;sketch=1;curveFitting=1;jiggle=2;shadow=1;spacing=10;align=left;fontStyle=0" parent="1" vertex="1">
          <mxGeometry x="440" y="550" width="317" height="250" as="geometry" />
        </mxCell>
        <mxCell id="YhBpW25rhfoBZGBujpxh-7" value="Terraceamento&#xa;&#xa;• Construção de terraços (degraus) em áreas inclinadas.&#xa;&#xa;• Serve para reter a água da chuva e evitar seu escoamento rápido.&#xa;&#xa;• Reduz a erosão e o carreamento de sedimentos e nutrientes.&#xa;&#xa;• Pode ser feito em diferentes formatos: terraços em nível, em gradiente ou em base larga.&#xa;&#xa;• Muito usado em plantações de café, arroz, cana-de-açúcar e uva." style="rounded=1;whiteSpace=wrap;fillColor=#6DAEDB;sketch=1;curveFitting=1;jiggle=2;shadow=1;spacing=10;align=left;" parent="1" vertex="1">
          <mxGeometry x="440" y="40" width="317" height="250" as="geometry" />
        </mxCell>
        <mxCell id="YhBpW25rhfoBZGBujpxh-22" value="" style="edgeStyle=orthogonalEdgeStyle;rounded=0;orthogonalLoop=1;jettySize=auto;entryX=0.987;entryY=0.46;entryDx=0;entryDy=0;entryPerimeter=0;curved=1;sketch=1;curveFitting=1;jiggle=2;shadow=1;spacing=10;" parent="1" target="YhBpW25rhfoBZGBujpxh-2" edge="1">
          <mxGeometry relative="1" as="geometry">
            <mxPoint x="460" y="390" as="sourcePoint" />
            <Array as="points">
              <mxPoint x="300" y="350" />
              <mxPoint x="300" y="159" />
            </Array>
          </mxGeometry>
        </mxCell>
        <mxCell id="UPfVKm66rrc1FRri50bx-4" value="" style="shape=image;verticalLabelPosition=bottom;labelBackgroundColor=default;verticalAlign=top;aspect=fixed;imageAspect=0;image=data:image/png,iVBORw0KGgoAAAANSUhEUgAAAPwAAADICAYAAADMQIzcAAAgAElEQVR4Xu19CYBkVXX2e7Xv1evMMDPMwiIoshMRBBEQAbeIUZKoiBsaQUwIRlCMW1QIv0YlblGJJiIGlCiGuICKCiJoQNGIRAEB2WbrrfaqV1X/951zb1V1z0JPT3cPTd2nTfd0V71677z73bN95xzfc4eTgJNA30jA75s7dTfqJOAk4DnAu0XgJNBHEnCA76OH7W7VScAB3q0BJ4E+koADfB89bHerTgIO8G4NOAn0kQQc4PvoYbtbdRJwgHdrwEmgjyTgAN9HD9vdqpOAA7xbA04CfSQBB/g+etjuVp0EHODdGnAS6CMJOMD30cN2t+ok4ADv1oCTQB9JwAG+jx62u1UnAQd4twacBPpIAg7wffSw3a06CTjAuzXgJNBHEnCA76OH7W7VScAB3q0BJ4E+koADfB89bHerTgIO8G4NOAn0kQQc4PvoYbtbdRJwgHdrwEmgjyTgAN9HD9vdqpOAA7xbA04CfSQBB/g+etjuVp0EHODdGnAS6CMJOMD30cN2t+ok4ADv1oCTQB9JwAG+jx62u1UnAQd4twacBPpIAg7wffSw3a06CTjAuzXgJNBHEnCA76OH7W7VScAB3q0BJ4E+koADfB89bHerTgIO8G4NOAn0kQQc4PvoYbtbdRJwgHdrwEmgjyTgAN9HD9vdqpOAA7xbA04CfSQBB/g+etjuVp0EHODdGnAS6CMJOMD30cN2t+ok4ADv1oCTQB9JwAG+jx62u1UnAQd4twacBPpIAg7wffSw3a06CTjAuzXgJNBHEnCA76OH7W7VScAB3q0BJ4E+koADfB89bHerTgIO8G4NOAn0kQQc4PvoYbtbdRJwgHdrwEmgjyTgAN9HD9vdqpOAA7xbA04CfSQBB/g+etjuVp0EHODdGnAS6CMJOMD30cN2t+ok4ADv1oCTQB9JwAG+jx62u1UnAQd4twacBPpIAg7wffSw3a06CTjAuzXgJNBHEnCA76OH7W7VScAB3q0BJ4E+koADfB89bHerTgIO8G4NOAn0kQQc4JfAw2632yFcZtx7+GepUqMcLRXvaRceibc9b4MXSyciyZERLxkPt+qtwcrgXs+d8n0ff3OHk8DWEnCAf4KuivYdV4/e8svrD/z93bddGG2Vh0JePd722/FQOxRpt71I24t5Td/z66FKqBrUIvU6/hOOljJDy3+/YuW6m/ZYfcBP91i9z++XH3jWhifoLbrL2g0ScIDfDULf0UfefuUHD7rtpq+/qll95MQ1K1OjzfqmVeFWJeR7gddutzyvHfZa+Gp7Ua/Fpxdtey38zfNCXhN/b7dCXtCOVlvN5MN1P/W79MD63x940DH/ceBp5/zK91eUnmC36y5nkSXgAL/IAt/exz1042Wrv3Ht5941NXbfqfuuH12Tj7W9jQ8/4OWSSYAcFnrb5/8B7rbXDAHkfsvzgfiEH4e6D3u+H5bX8IALANC3vIbve7FUqr2x1NjoxQa/tf9Bz/jMUaf8xd3+8POnniC37S5jkSXgAL/IAp/5cQCn/+PL//zY23920/tHcpFjcpl2uDD+iBdqtryVowNecYpKOQSYhwzYPejzJkDf8sKtiJfz01644XutoAnN35RXhmHwh6O+F4r4XqUVeJWm51WCuFcNZcdCsWW/3GPPgz9w8hHH/co/8swtu/n23ccvsgQc4BdZ4L0f127fmPnmB8//e7+68ZRGvXkQNbkfwHRvNqCm654fanrRGLS6H4hGh88OUMN09wnrCDaFiBerRzzody+M14RCeA/ex/O0aP3jKxZPQ9vH8P4ENoq4V/fC9aYXuW9w2cjNy5bv/6VDz3zVLb5/PH0Cd/SBBBzgd+ND/sGnz3zWo/de/+WMN7m2Gfheo97yYpGkl0olvBAs9FqjBK1eE8C3/aaY6tDr+E4fHjCHhg+3woA+onchAB6vI/B9mPwSp8frioUGQJ/1Usm852P3qNZqXqFc8OpNnDeSfTS3+uAPHnXqC762/MC/ccG93bgWFuujHeAXS9IzPueu/7p03xu/c+W/5vyNx+Tj0LuxqBcEda8B7Q4vHRoaPnij5qXTaQEvMAxYQ2W3aNzjZ/yb/nwslfSCZhuvbcgX34edANo+BL8ePnwM2h0mfUDLAT5+NAqfPxLxgkbTKwUtr1gNFUL5Pb7z1Gee+nfP+rOPPLCbxOE+dpEk4AC/SILu/Zh7fvLvy374jU++36tsPGsw3gpFWlWY2zDF4ZdHoiGAEhocCCdAgxrNdIAXQBfg8zugHoK93sIvqjDhWzAHfJj5IT/S8ff5Gm4IlVLRS2eSAvx6Ha+FFRGJxLxoGGk97BzhZNzbMFZs1sODVz3lkGM/+pwzXvdLZ+LvhkWxSB/pAL9Igu79mM+965jPx7bc/crVI/FEoaiZMuBVI+8AMU1y2OPy+2g06rURkKOGbiKQRw1PzR0hyMMw5YFxMfWhxUW7YzvwwiGY+RFsGgzmYSOxh/B37IEgID6vElRwHmwWXqI9Xo78YXTVYR/5s3d9/1O7QSzuIxdBAg7wiyDk3o/4/jXnr7335v/+z1ztD4cNJtperc18OjUzwcovYpbfqeERmoP5TSA3m2rm8wiHw/hC0A6A5u/5+rYk5bsHNf60YxrY9S8tWBQwLyRe0MS+UCgjnRcZvmPlPkedffJbrrltkUXjPm4RJOAAvwhCth/R/sONic98+sJ3Jit/PDcfKQ740K6haFICcLTXCXADxQ746c/z9/pFCwDpNvjnBD1/pt/O7zMBzg2A7+Hrtntgo2ghGJhIJHAexAwQBGzAMthcbv9wnwNPPP+UN111xyKKx33UIkjAAX4RhGw/4luffM2Lxu6//VN+5ZHVuQSi8NUSgArtDtKMgpZgxj/5s/neQh5dNwKh3JhT6cbA19HMR1KuE6Tj78XEhzXwuIDHaxv1qgQGW4gXtOAihBA8HC9WvUY4/92V+xxx6clnff0Hiygi91ELLAEH+AUWsD39xK++PPgfl/3D9cvyjSNqhUclMFdDiqyBaDmBq2b69C/689GY1dDU8ND20MEtOOwW0CEE30jMmcvBICAXQJhAB0mn2qwiXVf1IjFE/r2kN16J3bb+aSf81fPeeOUv53J+954nngQc4BfpmVz+1uNOa0/e+9lIe2yk2SwL0BCHQxrOgs765gp6SasheJfJZLAhgEFHqx9vIuAJ/GaTmh/viSQQsFNfnll6q/n1HKrtt3cQ8KlY3CuXi14kiWw+/PmpQgng97wEcvdT1Wbw6FTku0ef/PK/Ofr0y+9ZJFG5j1lACTjAL6Bw7amnbvyXkY9d8rZv7rNH6pnF6ha/CaRDwUsgXox0alqiGZq6+13N+HgyAVAzWh+GtqfJr1H8dlsBD2hi4wA9B9YC8/g8InhtPK759k4gcBv3ydRdHOiuVIvgASBnn4iLxSFxAbgJTbgalVC0tbkU+vEzX3TWGc98/qUPLYK43EcsoAQc4BdQuPbUH3vtgefFihsvjrUL8dxg1puY3OwlYKpHI0iNIXqOOLmY6AzC2/SamOwk4OCLYI8nIgiugUobB7uO2h60W24QjUYY+XXw5SsV+c4DKXcvCbYec+/U8tvV8Dg7bAMvhrRctVH3mPWLx3UDaeLfqUzKC2ETKDailfF65gt/8uzTPnLQCy+5bxFE5j5igSTgAL9AgrWnvfvaS5/10+uuuHj8kf87diAXl3w69ToaVnjlUhkA7vXBaYPrI7FZtmgUaTmSa9rg18Ozpk+fTMa8RCoOQCe8zVumEHijiY9YADS/mPY01dMorMnlsInsgCZPGi6uhaY9y229NnL38vGaIqQFQPJPOJ7yNk/UqqHUsjuOe8nrz1h77Dsc6Bd43SzU6R3gF0qyOC871Xz2rGd8uvDY716ejDUHc1mkv8B2I0suGoNWrZahgWl28+iC3QbhSIxRwJN0U5PUHa30eAIaHwy5KLnxVbDtqlXR8E3SbnEacHW8BDaFeDz6OGk5bAaID/iooffAB2B6UDYaIeIbNl8j8CLIJCQSKW+q4RVqkWVXPfvUN75v9fFvdeb9Aq6dhTq1A/xCSRbnvf6jZx1y2/f/89qBWHtNIgmzHXn3dqWKAhnY5NDsjLaHmYITYl33UfT8iI2BxJsAOXIN1oXC0MXizyO4B4psKp0VwBcKBa+GzYRgZ/FNDGDn6x/Pj+/evtr+LanE44Hr4hYA6yGB6/WxSZVAy50IEtXQyLovnnTyq9+9x7PfumkBxedOvQAScIBfAKHylHddc9Haa//j3z8LNt1z8/FIqFSdQm37mJeCv5yAZq6Yz40xB0+I9aKcJBzG8UWjK+ADaHl+Z35eiTcAJM61bNky8fMJerUYaM4n5e82iLejWyTAxb5gLS2JOKTkSpoPGwriCHHy7dlMowqSEEz7IJrzHhovF9Kr9v3Yi096/cfyR79hbIFE6E67ABJwgF8AobZvuXrowx//28/mU+1Tg1IBsS+a3mWvGdS84VxWUmWTZZj2BC5wFu5JnanvTh+aoIMfDVBL/t2QaZRvryQdviQ/kIV5H5ONoQ4SDX39CIKBzOE3YRVs9xCqLfn0+jkI/ymltwUTAaBnaS19eMTsvHKx4KWTCODFUt6WSVT28edc9oENk807/uIt73n9wNpXji+AGN0pF0ACDvDzLNSx/7k6f+Un3ndROlR4Xas2OcyUVxqAb8IXhk2PgFsSde5Nr95ow/QGw61ak9JXPUh17bkgcuTNP20+Xf+u6bu21L63EE2P41wpA3Km6wx4qaexYegx41F3uPUKeMvf9wF0VN1IhR5/F0HPvFqjKlrfB8kHyTvk6eHrwx0Zr7UnYiNPfd9fXnTRp33/+QgyuOOJLgEH+Hl8Qu0/QrNf+M5L2pUtf7F6KJkd2/yIl0S0PIGIfLtalwBbwPgYNDt0O34f9/waNLZY9KZwRrBpga9FM6LNYfrTIlCwA3CEqQ/WXRsbBokyUMWJJIN00MuMzIsloOb/9MM8cgNoBu0IcAbtpAyXJbjIBjB6z2tC4B5/inpjRZBzwlFveGDQK4xPeI2purfHmjXebX/Y/OgBf3LCeS8657qr5lGU7lQLJAEH+HkS7P3f/dz6yz/+zssGs/6xywcS+S2PPOgNICpfD6oC+DCaVNQQ9GojWBeDScyS12oJATyfJrQ9FPSsYtODTTAAPlJfaf6HAErDu6cRzjy9H4a1ADosg3+ZXBrWRFx8ejLyOtV00+5xOuAJbAK+jfZXPuIIPlwHATw2EwK+BfegAl8+mkiCFdjyylNFL4ugYTaaQHVdzYstW+Hd/VDh3gMOeeGrnn/2l2+dJ3G60yyQBBzgd1Gw7f/5n9R3f/DBl/3ylpvemor4T89no/FqERqwUgbQQZQBYMQXFy1On5k5b9W68rueYJ2y7CzrDpsDABegblUUPP9D81xeT79eq+EYmIug4EXgD1+f7kN+KAM/HpV0yArQpKcv3wAVlwebZKCaXnx3knvYLEsPYz2Y4J3GERA8xMexUQZ/4LVr5x1ciuxJ2CZSEW+qFkaFXe6RNfsd9w8vOPdLn9lFkbq3L6AEHODnKFyWun7nG9c8875fXHdGq7TheCjK9Wmkw1poUVWB+UsW3VB+QIJ1FHIvo73XT7eAt2AnsBhHExMfPnoQNCQNF0Ngjsw5Zdc1UWmHdlj4LsQYUO+0fLYBsz7uZbOI0uOldfTEYy6egTz2rJfNhL3w8AFN9sVj+axcXY87MUMeXWuj5w/G/8dZQNdhx52Y14gMe1PN9G8Hlh32oRf/7RlfdT79HBfWAr/NAX4nBcy20t/80BnP/fWdP35XwqseHvcbUKpItQGMbWhREmtaoKWiN4UXRcXLTKbbNLAL1rSDjT2kvzwZbmhKyW3Ch6Ym0SYJIJMfT+tAqbQ1r14DIQfBP4m2CzU3wKYQAa0WaAf1NmhWpL0VmX1tuAnyOQJW+50/bh/svCa6Dlsf3VReCxYI3Y04aLiTxcDbNNl6ZJ/9jv34yX/32o/5/uk97XZ2UtDu5QsiAQf4nRDr975w3rE//+F/vS0Y33BULt4aAffFZ9S9BT+7gd5zbQCOOfYE/HT2oGNBS6/23ArsxFuP6u8AnyAUP77lZQfTklunac4SVjXnSaFll5uwV5gAww7VctqkEkQe+PssniHgacpnEMHXPvVac2+baQixRjYaewHbXgpbA767ATB3z9RdmJ13GsjTs3IPsYBNU+FHl6856NIXnPBX/+4ffbrL0+/EGlvolzrAz0LCN11+wcE/+M7V7wjKm09YNZocTWMqTLNWBuDQE67MXLcG1aIsSSWEoOkjMJtpaksLKkK3R9LTODZCYaXi7dXy9J21ddXI8iFAEppcquP0XD7C8mFEzNm5bnIMzSoq2HBYZ8tDymhJ3OGGAZZcmpVzUTDvsGEQmGx+ieuWppfcSUyXW9X8dCV2lL7rvQ+8H9eUAPOPoYXCOFyXcNwbHlnulVF8s6FYmgilRn5y3EtOP2/PZ37g97MQs3vJIkjAAX4HQv7Vd/9l/+v+7TOfSXul5YlYdX2kWYoH8IvZJYZYoYmdTGRFu/OIQrsy307WG0FMn3t6/nw6oY7vCQGcfK3dEFTrakqMFXGDIwOSfusNotmWVqF23CuB4F4rKeAJYGlcKV1ySMOFxx5tiYmfSsdE+zN4x1p6Ap5knbbZkGyevrMZbdUDTzeE3o2LDLw4zllFI85oDIFC1NaXwOmPp5EpwEbw0MaxeiuR//VeBzzrXSef/PIf+utfW12ENe0+YgcScIDfhnB+8ZWPrvvZzd86a9P9dz0nF6sfmQFWYghLB0ix0afmwm7AZC+VSl4K2rNRq+BvLGOFLwuQCyDxdwGIaTxpTWMLKBvxRua7A3jtVivvUpMeQbv8cEbMc9kHACJVwxrtD4EVVy2geKbYEL+eHW4JeulPj7+z0KbZqsOPj3tpBPIiyACy1z3Nf75OabvbWR0djW//vvULeUk+iAXlchmuR86LYmN5bMsGnL/tDQ4MiRVC16NUbd4Xjg/+1z5HHvHPR5x21b0OkbtPAg7wPbK/5eoPrPr6l7525uYHf/uaZRlvzxX5VCKO4BnBDkUmOSkfLLMQAM/oeBMR+RJScCmkpujLi49sO8zSrwfwNLLeDX5tH/BKh+VBza4mfeANjQ5KAE/otWxhbWi1LbbFAlmmMoXceKECqwNDKaT+HY0oCXichw0zqrWSRO2zAympo2+A3kvQE4zcIDjxRo+ZuQSzt3SCegbwvUE+bAr1KlKBmaxXqhXRIqsmXICADTERUBzK5XFtRY054P91P/molxi5Mr//4Z9/4X4veQj+vS0p2H0I6LNPdoDHA//x1f86+s0v/dPbNz/y4AtH0uE9kn4jHwHAogBaFT56DMBhualEygl4ACds+suJ1t1GpNsq65lBr17/nWuNjDsx6WVclG4N0tHGAD6TT+E3ALz0xlFuPTVzBHm3SCjuPfrAJgT+SIfVMlvm+rsHo/1ocAHiTzIVBRsP70FGQZh8OF0TKIwgpVat1GGtVOCKoJoPK4KsvTQKcHjPtCyY6ycfgG5MiDx9XB+thDq+fEyyEdptD1XXTskRGcDSEf6BdNDhNUYn8H286fuT9VBiQza/x2XDe+x3137r9inu8Zw1Uy6yv7A7UN8D/pN/+6qjH7nnjrdveujB41KRYGAwyZlt8JmBCGpAsssCaG1qToJmAOknMFhhZcM0RtorxPnsAvjp6avZAF6aSJIyS1ILdawwbLQWHdQ8whcafkA0vWTUSHWV+XL4B10GAH1sw6Qw5DqAZ9ROFLaehxNsIpgk2+mWA7eD7a41jQc+XhW8OnL7kU6USL+p0GNnHRbhkAPAFlsCdpy6d/Oh2xCwnJYBQGQMQgC9EnK62QchCEksX5trcM69x5gEvmCj1GKZlU1wlOpT5cZYoxV9IJob/OXw6J4/Xbl2/T3x5ftMHnjMSze4ufbztwn0NeA/ef6rX/b72398UbQ2eVDEb4ZSMQAbRJc6Clqg/LwIWkqFYwjZ1TAKCuBI4t8j+aSXhwkf5XioBiLTANO0gpdtDHzY5uPiJkHuuuTdRTUrUAzotTCm7Y2OIkovKlPTdGw/VYfJHkiXm7ZXh3buBTw3ATmdqleticc1IgghABbQWrcDe0q1onn8zmfLe8ymAysjCuDTMujw9E33HaHoYzOom1gFgU7A69Ackz4kow//buLFuiVyq2pgS4JLQeDjdY12ErLW4CZbbLXDIYg6VGiFolP49GI0mbuz3I5ujCYHf7v/3gfeuN/TDt00eOhrJ+YPAv11pr4F/AfPevFf/98vb71wZSayIsqBEC0sQkS3ySNX0xm89UgcS9P3agjI0XwFp8XLoxgmj+BUEh1eI8x109Se4dfOagnZ95gyVSXFGNBbph3z8LmUAhefQ0ujjYBYDZtSC4QbocaKCS8VOeZjbXqN/1TAyzRZgt28pDvJhhqXFXBamCNpOpr7hsTD97JC3hJ/2KUnJCpcC3PozrDMhgcj9jQqVMOrCS+sfMY1rEA43VZm2MM94BbA+4VbEkI9gXbpxeaAVJ+4C2QTctoO/h5J5L1IOo/kQvz+yVrzfuQdfrluz71vWH3QkXcdeNz5f5yVvN2LdFPvRzmc/dz9z8olQn9XGXts3zjrx2nGAlARLHYG5yQ9zXoxNn6A+uaABgKSJaE0SVPIaecyCS8L4Leh6cVMnQG4reWqtq7quu4h1oF5b0fb88GIvc/Bj2qCM58fSIdLxQlHRevACk3r2XPYhhb6CXgfACSA53vwH2lmTUDDOqC5nUQP+l53pHN1ZkOi/84SXF5HAq2sY4mo8PTthFsW9FjrYzqBmOW7+I2h9OpqM2c3bD/eIklKDCKqS0EzgS26kO1gt17EB5h9qCIAGKANVwwNOMLYAJgFgEGwMQjlJxEa/PIpL/7zz40ec+4j/biWd/ae+w7wn3jHXxx5760//Uxp4wOH7LtmuVdk2ScWc0T46DCZkVOXOW4ECAJkDfzM6DdJNIxw1/B31sPkMDpmIIsgHgJ7rCybK+AJwC6P3rapNo8RAFFujNW6ahizAIZRdiH21NnrTt0DgXgnaMe0HvXz9Gk1dFUsW4/fY3DQCXw72MLGEuy4aZ5DO+doH75kOiFEHrUENM7BQ8t79TP10Gm3NthoFya3VmYY2jDjxfCnZQXuQIikJSEN6ZK06cwtm0sIloYRRMzIPZO9WK/C/2daMZHxqq1U84HN5V+vfMphF73iHRdc7ybf7ngL6CvA/+HGL6z44Dve/pVlydaxA6EgvPmxSS+ZYy9YpsI4jRWFJlxsAABHKnNh11D8EpH6dZ3XTlOTazKOyHcGPv1wnguXxJgZnHMbjjepNmkh1aPl2CNOKtGMwWv70atfbx4LAd+jIaXQxvj9dpZcq9PVZiYxRsGnQLRz66h1SbFlyYzx9TmPvjO7Tv15ba7B77R22ErbtNeSSTjQ8vyCpifVl7wEsTj41p7mlwzT0Q6w7EDdAhjg46bEvxjXg447Dl6RXBc3CcYQTGBE596RZ8Bx2gw+avvtOtyaYmUKZbt4Vsm8Nxkk/1CJLrvmWce9/CMHHP/2x3a87Pv3r30F+Pf95XEfevA3t7x1z1ws3QJpBmXpwk4pwmzkuouha0wY7BT67DVoEXaoyecywkZrAxhNaDrLnJP6dIBp9co81iE0DheqWfhqclsgTE+TdUBhTHuJAchhgD4D8Kybt/41QaqtrphS69Ww3SxBp0UWwS4bmQ6hFK1pQMWMgz0nq/nUJ9dAmz16q/gsB9/y9Qm4dBbZCqTuAjbh4MYk92Nm19OzJ2i52UhQz4CbW4AAXstuZROAqc7UpIzZshkGpvJgithYQzabBcijXhlpQ5J8uIlxQ26HUfPvo99AJo0GHZ73wKZaPTm6349OOvnMs5524tse6F9Yb//O+wbw3//8h9d+6bKLbjx4zYr1hS2PSilpDYGvECNxNINhvtu4mWg8FqfI9FWAg2t3eoGrQhSLHal59JVDOSr+ngAAynAR4iDhBDWUtcbRwgqfwc2DAKLFwK6zrFMnA05aSpvzdx9Rr6ae7u/vzAK2HXQkZy5pRc3fU1tW4BPzoJXCuEAC2pojrSTvjnvlJlAslvEd7gxM9iqun+X0cTbvQCBT7p0bHjhFueEc4gQsHKKvj6An04k091ExSJ88LPX3DArSDYDpTrCTWGTqAtqIRWzLHeotKupsQp3VamL++JwSxmRlODAD0ULG/8sBmo5ERr958OGnXXDEyy6+e2dk1g+v7RvA//Vz9/rkoFd9Xau4KZFGmonm4Ri6t8TAh6ffK1VmbB8tPivy0dCsPNgsQr/3HiZQhqhzPI75b+Cpk5TDApVSCbXwAAla0iNth6KSKaTvGIxCuoyAidMERZosFEbEmiazodbOXGwzxr3jzzPAPy0AtvVStYCn9pVoPjQoAR/AaqlhM+JmQ7OcIA8hSEYznVV2dCEkSg6rh/l5eDEoECIdF69HEC2KAhktviFPH226EMfwIwh4AuhhZC78MMqD8RmMgzBtmIjAjJLae63UU8YBMwemqEh6aM1wh2aJPIlXkMcAsPtBUWoHWn7Mm6zhXob2++ba/Y5519Gnf/TXszxdX7ysLwD/bx963VE/+tp/XDmc9NfFoYmyACd98UC6uwCYMNe5gLnoebD7K31IKS6xi7F3URqwsQFEDMUpUXyNjo4IKCvVgpwrGkl6W7ZMgHqr64gfpS2kQ14GVFewc+nRSr/3OR2zBLyNynND40ZEQ5+AZrktp9dksuiPD/BJxR61Ls6r/r2m+4qTVUzIYbMNmNFQ6WGk0LQCkOW6+C9Kb6PouZ9GYA2VwXg/y3JrJggIqyaSFvouXRB9HzZLUpVZ2INroPUxd8Bj5DbOy2BfBCZIDBsQr3Gq0vSm6rCmMmuuO+W017x95VHn/XZOMn4SvulJD/hHv3X16Dvff/bVK/KhY9jbIcYAACAASURBVEubNoaXD+VgdpdoZMIkBQBg0tagxigIDnegBqqDl86D5qwufAbL7ISYLkCl40sUEX0stj33XCFmOgN7rENPJtLegw+OSyMMugo0iRkngLUPFyAhKS5pKT2TazvbRTZLwHNTUw3PDQ1+L31o/Js+MSvoInFy5xAQkxFV6neLCS65cdBuAfYyWmrXawAqzHOW5NItoMZm0K4BtmEK1XHcOEjO8XxmORjko0tEZU6+Pot2dMS1uDGQc4xEIFgWQadab7Y33n0draAy6vB5X3FcK1nO0oSEmzl2o3ZiuF6LrbjhJS85/7XZw053QzN0JT+5j0teecw/jD34uzfVK5tHR+BvMg3XgrmehAYWfjhMUS70OBZfFOY94S1z29FwUvLiMgqqF/CUl4JeAI8/8/WrV4+I5uJiZxormSTgt0ituPLRCTSOgPK8Afj8JLN0AN9L3Nne49hJs7dj0puUHpU2NbzNADDanQJIgzZMkJAtv7UfDkcDVFluci2gqoRqvAY67oo8YJ5LcY6xWKRJJzavNEoKST1mjp5RfRbQ8DXlYtVoeN1EufEwlkFXIgLQS83ATHdllkuS7bc4iotts+EwSUq1Vi7BamqiahHyhTuxoRKtebm9Ln/dB/7pbb5/dN8X6zypAf/tj7533fVfuey6dCw4oNVGZ1egr4BOscuXj3gTm8YBVpjtCDSxXjyDgBv9eR70cUtYqGwjBUNY0khqdlpf0wIeCw4mbRWvGx7JIFeM95v8NINaExMTMIdpKusXOempFLrLopstNZxEsVmbPpsFPkfA89Q04XVOXRfwrO5LY7hlsz0lPjg3AmXiabssr8n2XAAvvivgmS2AzY7rYCdd1dZskIlgHTY6Aow5etKPKaZ6Hak0BAeLUzVxZ2zUXywNNuRgZR8+l7InjXhOB+6J72f/AUBcCngYLIzCPwH7GRNxA8zDg+OUWF4spNZ89E3vv+ndc/qcJ9GbZrXWluL9tttXhy94zgWXJoKpN5SmtuRWr13uPfjQBqTeItCwAyg62ezlANBIpA4STcpL0dY2qSlqfHaymZxCswv2jONCsimjHmGoDw/qLRYc/dfly4fFn6SfStOeGpEWhQTtcDAqHkegjIue0XoBmMlD29M+7gPZitG37RhAhwaAcDc1skDZcmvxcyKdEsCHIlB6CCBq2S1jCtpCi+kyttBqwJSnD1+vsX0W2mXhf2rSM4PB6DuBhZoCWknsmJtFSy5YS8xMqCvAz4Z5baKQyvozZCN87sgoJvHMEfAyGQdexPgkUnWctwciDrOcbCCawnXVOGCTLMUoBmG2Ehtzqw48/7Tzb7hiKa7n+brmx11f8/VBi32evzpmzRnDofr74s3SenLeyzC7UxjzxF2/gBrtEfjyAQJs2WzYyyGnzMVbRSdYKQ+No6ADfeIKAHyhyL502wd8HOyzGoptaLKvXTusEXgsNjbHyKI2vEnuOz6bZi475EjXGZnFjgESTG3N0O+P+0B2EvC8FjXBVSNbHkE8hRp5bHThGPvP2/Jbw53BHdOy4X3XK6i3B3AbiNor4Nk/T1OWWk2H/DhSYzX8nYy4gYGcaG9aR1OIlUTQ507BrlF6ujyMcUiOHab3nmsHdgnwOcQhaEm18cwimHBbLMGiQHYgx0wJG5YgWRdBdqGJv2+pRP6QW3/4X77kLd+6bbHX4xPl8x53fT1RLnRnruNj57/yT371/W98ce1w8mloB6OMLyxVGd4gd6x0WGroQTDlGJyPogZcTF7WbbMKDT4ovz/2GAJv7D5LSqjxh6mh+No4tEphqsxBsDDVwxK8YqSfWl4KTyRwpeCwGjFMdhreL9x4dp6BAUESiW01zaYadtY7tW6E+eveY5aAt2/pxgS3tgRo5lPLE7haDqvsO15XA5qZaUXm4+m3sxKul5gzLU/OQJ+xENSU4ORZjfSTISf3JyF8xjG0uaa+LvCGRzGUYxc0PItxJPVI90KeMVwE2iHCnWAbbWZcsGHhWVRhsVQjK+5csfcz3nLqOV+/eWfW1JPltU86wN9wyQVrrrjiU0jBBUcN5hOhgBNVydQ0Gkv53lqTzSWybCSJ3DLMayxIgo7mO4HONLwAfgMj7bpZdACPEyrgAQJE2mnWCylFctk6/FEi1dDq1HYKYjVlhVHGz5HFT+osq9Q0A2DBrt1nWYeOrcoS8ToItnGE6fGE7S3IHQFe3sNmHnb8tLT14XVgM4IPTk3egqUjKbhpMQSpyO8eZAeaBgACfJ7UNOWkddEZjcUNEzKRp8E6ezQWGRgm3XHuPnyH0UdXhAVOADyaa2hTDpr8CEjWsemzc3cqN+RtKUa8iVryjjX7HnvuiedcccuTBcizvY8nFeA/df4rDr/9B9f987rRgUNazWIyBAaY+K9Y9b6k1bhwFfAtLAQCfmQkJZH2KBhkBBnz1DrogT3mMeUVZj0XLDno0wGP1BIAmQPxhIqRQKe5LuUi0GCM1BM4pIVqHznL3CPgNXhmTV1LXeUmQQovNwZyALip1KXV9XRwiXLsFMvMMY/PK8XlstSWhSv2+qUOzlgfdEfi0M7TNHsnom4Clz08BbkPanfh4jMkYn7GrlWX7AW775IWiyo9cAAkpoHI/lwBL1N8JI2oZbnadUf7/TXovuBvYfbjh0x5F3QvggBU6gasuGju3mZm2dfOeM8tF84WLE+G1z1pAP+F977hmT+//lufijUKh/hB2R9ANVsBPiTJJewow8VAkHDXty2gqeVT8Ds5EopR6yi0NMtGy+WqUktB4KCmoAbm8hbAs9wUUmM6iEVjw8NZKDPtBy/BfFbIY4FJZBzmawY8bwsgRqpl88CKJBHFBvMIbm42GjSjeayA5zkXGvB1gJqz62wAjvKxTDkG62Pkz/YcWiQj0pDfsmZAvtO7F8Cbhh5G45OBKCY3QM9NkNV7dCEobwYwA5jbc07Lkd8AjItbhMux3Xb4Oxom/C5uEQuBaK0gfkP3gj59EVWGG0vexPD6gz9xwuvPv3R09E8LTwZAP949PCkA//E3v+CN9//2zjdHGpVDIqhPp4k+ichtbjApvrNy4XVhaJGLrFphhYWl5xtYZ8hLSxdXmNAVdLgpIX2Hb8Izl6IV0/5ZAa8mfQwpuQGQaAh49nzXbjXadEL9di2t1VJPo31w/jq61ZQRXLLKm9nAFIJo9KM1kM5tRoNsWpraQ5gwGnW+NHwAwNqqODXLTccbqSXQfvtCANY0uoKzhzdgu/N2qu9YdSgn1HPFseEyHclhGLZyTzY0EH8IfKmCm+OhGl5dG+24o0U8LM7h3+TLuGgJROpT8QSeaQWKYByy9r38yDLvgbF6MZJa9ZUTTzrzH1b1QTONJQv49uQtQ/fe+rv1X/zkh9/cqhZO3fLIH1cOoeEjzfM6mqQNL9Nad2pbUlhtR5YunGhKki4KsAKwglX8p4lKLa3S0qo0UjUlaMfFg92A2o/AoA9KDc8oP4NDtn5c004amOP5lXeuIAiB583cdhWDI2hBMEfPfQdFelIAwlZS2oKK1WamW41BWudBzTPgeY+iq3u0Nv9pNxQbX7CavNNzz74HG4N26zFltQbwnfp4AJ004jhYeAS4Vu9h1zPaV2MEcz9s/b8aFDoJhxum7RHAWIwP1iBn20uWAmSrZlDGRsxOPgkw9Xxv82Sz2giv+NlRp7z6nINf+N7/nfvVPPHfuWvSXuT7g9aM3XrNhw/96fU/fvn9v//fI+qlqX1CteKqAUTHWZRSKhVAfkkhvVbzNm1ueHutW4aus4zSM35LTUL1zro20lrZ6YVFckjjIGhkG0DIYmf9O2mkWLxMoVtfVOvC2XxBAU8NPzhIsk5XS9nX2lyzBq3UlA8LcYXUVKS6kNsmYYTWhjDVUKvLc3KhcpOygNe4wMJpeJ6bJbqdPnbmmTLfrvXpDExq4K5jeuOabZ2+BuGsSa+WkBxiTsFvR1CTzyaJZ8S22TxNpwOvuDf8hQ1A7tyC4icJb4D3IJeprgbjENT4EqnH8/Yh9wqeA3sTMmaQQy1DGyO2J8cxbBPumo++hfVIolnw0/+7bJ8j3vnCN7z9Bt8/wqQSdu6anuivfsIDHgsxdMc3P//067/zjVPv/c3/PtsPageAxbky1AqiAcC8YiAPjV5AUAjBLSw29p5jd5QUOlts3rwZQx7hC7OvGzjeXcCziERZY2TgMXhnD6upCXYu+IZE122LK0beNajGxRtBx9oVozmG+cQVIJ1OesjRWpDWU1p5pgcWFkthoeVZkEMWGjvo8JoIdA6j5OdY/1lNZ0b17SOywTkFh20LrVF44093zO5tLbsewMoJ9D1hFggZwNscvY208/6b2Jw6xev2tL2AF3eFm6JaMdIpiFaJFBEgSIfNkDTiBMLkNKMpF/rxfA2thwAadsfdgqZft7pk3SwBgS3dcw3gac7zHSDx4bn7Xgo1DUW04GaRTVhYgEi5ojgqAtZlFm20xtAEJYvUZAt+1UQdSsPPbhxaedBHT3n2mz+fO+JFm5/oAN7Z63vCAn7TzdeuvO57Vz3vFzf9+K3hZnM07AeDfitArZmayvziDh6hydyJHAukzWGAYf4Wsg0ZCPIOVdYu/G0hRReicsa1f5yAEYQZ5tZlQCOzePgfZ02ksbCSMBGjrKtn2yssdPa6s1Ne2IuNXXVsFFnHQbHxIxY/P950m+Xf1S9VINWwKZASzBQdDxabWBKNNLLAp3TaUYkroqQW1qH3Em0YuOTVSkvtGeb7theN0boz8u/62t7MgH2dWUrGlZGPEw0feINDKakQDCC7OopdfMZOaN6LXZ8Qq4eHlNDaxhfStw7WD8g0vXEDpuEU8LoGxIJiwJRFC/yS82CTliYajIOozO0TtuOvNa5DxiCr6LGOYgnpnrtpkptDenL1vof+cP8jTvr83se/87pty2dp/vYJB/gHfnXdXt/8/Kdf+Ztf3PrC+viWp64YzGXY+7S31ZMGa1Tgko7ZZdk/HuCNf0qShwTt4PsjDcf0UhG14lRm3HwYuU+z5DSDqS64sBbMRlaGSe9J+KrqL2s+HmVy8p3v6zah1EbOCnoFVgNvJiEmjHMTyDWw9EhXtRF+NqSQFJ7pSktXQEZUm/bR1gfvAt4A1oDeBNPlM3uP3uaaOxavNfnNq2YAnmOqBwZZZ4DJsrCm6tIUk4AnMuEywRZv4Uu4D6yoA9D5s62f51m1u5CmPiV/bzZAxhMDuFhCbmKGQMrzBPIaV5BjB6sDG0+7rSzJKNtnxdHMAz+XEGNpJ7KT4czKO1evP+rCZ7z6E7fifDu0n3Z5CS7SCXYdK/N0oXhY4Svef/YpX//aly4ZiHt7DyQiSQw+BRmrPj3gZsC+dYOIebqQji5Q0TAXLT694chTa1GzM6JOoo1MZcGKqZVZVosgHi56ZDgPMg74+HA1UijKYaqvBV+VwNcSVKwqTl0V81Nny9nDBqG6DSyYP4aFAW3OVB45/izsqYLjzspSzMISECQR8GNBDjMUzD60DGOPQUc9tucn92rrmTLc1nvM67lhWO3fW+K7FeDZ8BO8fcy3awFcDalQ1DoCboDhEHLj8JbZHJQxDXIf+HuFFwt1tCU25+TxPrmBCjNQQv/U8xya2Y2zKKeB7bXVQuitH5h2dyZuEAYXQIpvQDRiajKGaD435xJcriraAaVHVkyll6/5l8OPeNlnVj7rLQ/M1yrbXed5QgC++JurV/z92z/09g3333PGHiOZkXpp0huCRkizCAOcdDtDUfZuXLHEYecL+L0Bo066yaTtCHigiik37dnOIYzqv8vYKaTsWFfOqRWTEyVvfLwimmhgkO2U0X4JqT12t2UTTAbsGAiU1Bc1C0x+mfA6E/AyF94GoLjmzbAKmL3VGoN9aFFVhmesw3EkK0FzP85rQkAqiQ2AnWdI0ZMMhUmrbROcdtVtS3nZBn1brczZAN5cPwlOOHcGLb1JtGnDOqJPb4iGIttcdljTlOhVx846NRTp8L5CktVQspMc5CjIl2ZApHkIVy9JT9h4bXNLxjwYk2iQ5APtb1mNW92GuHZ8puquSS8DmQLM7j/KuhQXjs8jkqltKUdv2/vgE9914mve83PfX79kp+DudsDfec3nVn/xsvd9vFaYOnl4CDF2mK+YAuNtfORRsLyQsgJJovfQJogG8PiD+ONzPab5p9a3tSdTtatpNSwuk1emYiFDLI1FzDQafXDy3UvFurdxw5SH+htpckEzH8VaWOxYL/hHFPchjRpkNh27vtDPh//eMVX083Vslc1ZqznbxHU26iGZElMuI0SInxFl0r/BL1Y+AWa1g0SUzWDx4zv77dmRUmrW2mi4muA2f739jjszg3wdL9gAsEfDb0P+NmLOzSgFsMdQ/87gJh+X5OShfel/Z9IDUkrLYhsCnq21hKBkCE8kzdjnYHvhMz1qS475CNmnJC6z/0CeggXADZqfZbkQuoHOuEgDeAb0slkt+NHe+OhFSEuJfApsSJy4O4VhnRVM6q2Fsw+n8nt/7qiTX/XFvZaott8FtMwVZd333fyVf1z5uQ+962uHP3XvAzZteCxXpQnMLjRYCAP5rPihVWhJe1hsqHbXnV+HNc7xNmYCXjSJNXG3XuA6c51kHLSoRhAqjdwyx1KRvVWrtryJcbDzYArS5GRQinXj9A95heIGwC5NSoksiT40U6Gn4DLoMQPwpucbFz5z9xWIoQK3oVKBGRuAzOIzjYfPRxAsaKI8FQs8yak4aGqRyhDwDO5pAG/bgDe47Qlzym+214GnYwXMdAG27SpYwNP1SSIaHsF30cyIbTDWQe3LElqO2ZZiJWYt4MOL/94JlHLzt4E4PmPlJii5SeXWZIBOiD7q48dQvUjLK85iIPxbiT3aEnzaYSy7OtykOCrpeDa+lhtuHLURvIgAJB3GiDL5HCyGllfEs6oG8eZUkLh33/2PfvfzTnvb9/zVR27ZdSQs3hnmiJRdv8D2jVdnzr/4gg9mWuU3Tm3ZkMjlEMVFuiSADzcwkAGQ4KeCz55EFZsFtALetjjWhafpqTnexnYB3xPrl5JSjYxbWm0CPdyyuN40UNtECWYLPdvKCPRUykzbabNImpo0WStAKt1/BpAJ+IQsSAW8aLreYEQnet5t46yce2h3yIUavgKyTlAnoLWkt4HAYNOkFlMIFqJgCBqe6UY0rUB3XB1FxcMAZ5ovv3W0vTsFdgb4p5n924jSz8ST2TjpUbC7DUEuDDsTeKvDl6/ABCoXmPWQxyqaXZ6lkHg0LSoRd8mq4Ktn0+kE5SBYbZhJja5z9MhrINFHehR2NnDjKs2IZbCNGT+jBrBX8SwxGUMqJ8lDaELm6VjGK0xOIX+PzQQWXRmvayLu4IUG7i83Mj859ugXfHyvl158J65n7pTBXYfTrM8wR6TM+vzbfeHFr3n26yb/ePf7m+XxVREuTvikCRA0RGvBrKO5SjOYkVu7WDs91y2TikAicWOugJf9o0dDGXO696KFbivpLl1UNO2pPQTw8OPb0FRFdL+dmIDfyFkJjCDDStHxUGoeEphx2IZxDnCAiRhDH7ww20rJVFit0Os9rPUiMJUNh8Dm4Ef4ukVE6mFNSHtnuXzV5PTl2VduMJ8RqjA1P9tNJ0gH7DksvXWbqTXIsQP43s1wh/78jjS8ak22tCLQaWpL4A3PmOlGAr4Kq0VccQZoYT5JnMOAnZfNgKfcpykxZha/999xEJa0VgHWDIqllCOBtYOYRhjg59jrXtDbARg8Bz+XPAMZsolGpGx0zXCf8hBYxx/x6oiX0NIkh4AbNTfpCltpwV2Lp0a9xzbVN+SW7/XVww99zqf3efmf3Q/CDhv9P2GP3QL4//rCpft+9bL3fnXdaPLgVq2ETZWCttNRNAXG9tC20GSa9KR2moEvffC7CnirQTSXrZ+kGt3kc6khLSA7G4Ka3yTsMI1Dglw4jIUlaSZk3+08N/jqBH2czSNhukYQUBocSGPRwBJolgSYXOD2syQ6zTAeA1ZUjdIrnz8rx79QKMNtgD+JxcYYAefWc6otqaspaB/W47NGn4veWiVx/J7AZyaB/ihTiVy06NUtrMQoyS/4G5t/cEY8swCM/ocBPm64nfLcrSLxs1nT1pTuCfSphDtvnh4v3DrWIKCXZhlqxksxDLvTmoIjZiw6gTzbRUhSnjpEc/keo0K0UZITzX4dXMlNgi5ELMw22gwuTgqnQrwDGhN+Gs8CPf+IdxO/YWpYbBDh7PM26EfEvbIXrY8V/alobsUPDznmtA8c9qJ33zkb6eyO1+wWwP/tnx52Ubz06Hn1qUeH2TK6dxwRtbmWoxJoTEX1pj/NhJOexoe7ZNILuNWenEkt1cGO3UYO3YfTDe4R8NTwzAuj/kvM+YZw8em4098nq6sh1XhcMzQxh4YyAD6HI5YAKJyffeM4X51FHqSJwk+sw1+0bZ1TINozD89FyiBXuQxiCDQMNwCZn4FzyKBHoJ7+cpS8f2OR2G61TV4P6wYIeKQL+blRmr3U/sKFN00/kN+nG0V/mj6JFMSIWaWBvukb7+zS0l1rpccNsCk9EmimnaZnczWfqYQnBTwr7vhv21OAMmEZswU85RFiOSz5+vyOkw8ND+DOGQjU99rp3LZewvOTOjnIm5LIv+VUCPUarEgJrcrtdxUMgR8mpRjrMJFJehVkGSpohVZqJGqtyPDPlq055NKnn/Din6w96JXjuwPUO/rMRQf8Df9yyZrLP/6eH+2zIr2uURyT5hEEHGelWUqnmvD023TQIXdSE6uVhSt5bKPldyloJ4Dng5yhgTrmbC/ge01Xfb2MlsaDV+4988wEvBbYMDXGABV/pgnbxKJgymgQrbXYIaeNEUl0DVpkzgnDDGE3tnNGs8gqUlN0a6SeHkU1UqiDQCH9YMsuI/gZ+GJ0Wkxl0na11E4CYS3p2KOUYekBT3cWm1AEpimj+DR5CQjR/KItESzFyq5XCHqSe7T5BZtwbQvwlrumWYWdPHoAP+2dPa6NzSLwnmwfAqsYrAUkmwE9I0ExgY6fJSevFiBBz/SpxA2kEtHk6JkepFaXJ6gWUcJH8JWbIpcX6y1gzksHHdZT4LxMz/FOtcSalqVu/OUGajXw9yw25mQi501M1ryJYujhoT0Ou2r9ESd88qAXvuO+nZTOgr580QH/1yftd4lXeez8RKsUyWHRlbHAJFVj4jU+F7/9gn/OgQ5d0ogBp3SsoQHGQ/nbczssOYO+NxeKnojaXthxYmJr44zONXBRdoJreIHJ9RLwfA0LUbiA6PNRoyak933Lm5oE3x8gZnSfaT1uCEJGYTCQs+wAcmorDoOVrrCGpEO/X4ZGQCOzjzw76wjDDEEvkn5kGARdCjMnXvrGwUpoScRbAc8Nh9YGfVzycBh/iINX3kLumZ9vAc+BEQQ8C3vYuZeAJ0W3e+9G0Iy2i/CZRpyb5Ke9q0Pi6f62F/AanVc3Rcx6y1Qi+GRyjV5ENz7Ji1NA8nElEcBLQRMT+E3KDV+isSFXVuhTdmxQHsV5FPDKcaABH9D8x+mtlhfQ87Nkc8KminQo10AU15XEhoxoBeITYQzCSLJj4m8PPeFlrzrsJRffNQ9SmpdTzMfjmvWFXHPZuau/95Urvp2PNp+egBkVReCqicUtpqkAHj/Y5hBCLOHwBPpYXe0qD2oeAa8Xb810q63M58nn2qCavQZ90PZ9JGzI/DkTbOIoaTLeGCmPAdhkwHHKzWa0xS4WK4gAK2BpDqZQUCL97wB4ss3YITfAl/j0nRwkfVGmsqiZ4aendFwzxyrRTxVuOt0Huh89GxbrgWw9u0TzsSjZeYcBLTLfkqhAUn9V2Whc4HQ/tIoPGw6umddAzS9u1jTTm625jAR2egVtbSn1LqCZnoNaLQQugd77Sm0PRssoJIFbGWAl32VzMJsy75tsxzRag9NSYmWkcBd4A9wEpXAKNOkW5tOh550MBjHxGT7lpnG5OJ2H1ky3/x7tAfoQkBGeTwTruA35kjsigy/h2o1X8Uzya36+Yq9j3nbiay7/8ayBsoAv3OnHtSvXcvaxK9+fC9XfFG4WlsURWOHOmAcTzS46npsDDOoYAsG2yKRZkqHGclZ70EyzYCOLS2Otcz1Uw0uAywTqeCauMdvQQru3qlsx7TCmLNtSqUmvbaui0ncd0WGw3qiVNUDU9sYw3rSEphccSc0BjnWocr6O9y7UUWpSFtBI3MLOgyfo6Iuquar0UuS1QWQRkglbZDfQV57FOrRiO0w00nX1ehl4Ew4+dhRaBAQ/g3vsIS98AciTMiA3n3nxCjQ8O9QytqBTZlX2Cviu69MB/Iw01+M/iRly7Gye+s7pgDeuEyP4wqG3DTn09yykkQEZZnPkBkVagwJev2MVSewkAeuIOXrr2ojpj3tvIrXC3vvkNrSamsZTF0jbY7FVt70uq2yE+GWsvho2RsoCe7vOOYAiC4TaCwsrmvBK9Zi3oRC566hn/dkZR53x2TseXz4L+4pdQctOXdm1/3T2Pt++4os3QLuvyyL9xsWXQT+4AXSl0QYUWlxCs7eCtsiMFnPkE6vM7BBiK/huek436rnfhPZvk0GSkjbSWyKTyxJCwtI11i5SjTeYV3UWgviQ1MrkbuNBc2GlkLdNggDC87OL6uQkfGPk6iMxtMDGKRg5DuN1TWgFa5JLRR2Q3UlBMbVHjrfpdCvxBhP8S6fTwmDzw8gdY5Gxmab1Y3lhOm+dabAYAMyechasGvTq1AKgrFii+lB0jFpzo5XGH9iAZLYe38aNxALeaM6uhodsZm6GO1wZ0wG/Nc+nu6HzNMx4MCov/QdMk1Abq2BFXBE+s3gEdAN7AM/aIUnhMfvC2IU0GmUPPd4740UacQ+K7F0IQhMUDUtom+y1T+YeUnDRGFwzWp8SEpCaOrlXAr8t03pQJZnMSvltuaZjrGG2inzpRkXxrAtT4EIkhqDtI/ftJljpHAAAHAJJREFUd+hzXnHCq7+wW1tkzx0rOwV3z3vdM4auWpkNvawxuTmUpg8LwYwuG0AwhSWMjNaqJrRTXzjthCSpKBPX0Hy2xXTH0uU65G93CfAEHvrVY/dns8kkTGauHuaHC4UCzFvOYJtp0suWYPx4+s/MuZP9xtp3bVzBnDIBT9NbwIvFMokJLBUEwlLJjJRy8vcMKBVRNyDBKLkx1WDcZAhy/lxB1x4tGNH0Gc1uWh9Z1PwzBpDOkkbK6S5KPKHJyutTwPN9yHlz3DOjEXDgCTAt2eWijmJjLcr1MlYhAVI4qwQ5TXl+JtOKCvhet6dr37NKzQJeFlMH/DvW5Hbz1mW0PTOf1YLsK98dTxXlxqxKV6yYiS1gGfKaGXfBJbJhicRFcEf8HSmzPAcbZTJuQa4CSTkMqIZYJDOGCj48F/a4A2/KI67D4NWwxz7JUSmmTnG7IRlrrRaYxAa4yRLgsApiIOoE6JxUrlc8zi0JS5AWWRWQrpg9GRle7m0ex0CS6NCtz3vxW85YdvQ59+wkfObt5YsC+M++98+f8ruf/OgarzD29Fal7u2BphGcdsKvKEwn3b0TYr4T9PQjmV9lIIu+sepwlo7axdE1LVUS20oRzbi17WkhBlwQPCQ3PsuAGqLhHBwxNjaBghidLKM7u1llHQ4Ac7f8aBmZ2vNA9Fr0arsxgU42YSuij73+HT2Kre9PNCxiGatWDcIdqQjgpROPVBp123RpXp82cTeKL402mVbCFzkEakczMg23BCvemrFc0EL/pd/LGfDSKEMDdZoKg0sBsNDVkBJe2jdSx6597HvbcWtKjdRadT1kIgysH5kDYOQnmhF5bW2DpRwGWoIEKjc3bsgMhAqLEJZRC+gqjDNYoeQiTa2aYRuiibXSUKP87FTM4Z+myAh0X24GU+h6U2NmhKY9P1N2Ow1sDg9inYJA18B64Jqgq2W1d4jBGqbsOBmXdJ1QWQqFaI36YOKFWnC5kMePQYYTaMSyfPmoV8Tm8MBU7Na3fOrLJ+yuOXeLAvgLXrL/R8YeuPvcNaMD0QhMp0q5wNIGb936ERSWmEUggx5QJgnhkwBSRMECF1MCjQf16A2kUdYKKEu37UGc+fHxAK/BIH5+GO1ROPlUpqlKY8UaTPAiroGsuO0DXmFtN6Str2Dhf9PEomT+HZpMCDeM+KNtlumxJ8MtTB7dUEUMaLV8VAAvQyOIFjbr5Jd2ApIAIM7XZCchVvdJsFQbROrfbI8AzXtzoxBg4fnSUmBBUdj4/7bijYFGiY/QAzLMOcYWtJsv4xlaucZD8uQIruksOsYdMJ0WFkmEjDgAXsqS0S2nOEZ7Xi0p3WC703V4njDqHCwvQaodmeLE+ZTuy1QkBl6iS3EZvHkdo62uA4OjMvcOK5Wf1aClg0MzGmra87PYBFTlgyGlBL6QxlhUBYIVAB5lxSI2y1AIwVD2NMzt9VBuzZFnnvi6z/9g4dfH46Ji/i/hyvefc8CtN3z12lBl8945DhFkbzeAqtwsgjOflf5ihA01O31NavUKHkAVZijptuwiMw3w0y6xF/Cz3LtmaFhpI4cHJnRM/IOLkQ9eo9UEvM1Dz9Twqr13N+ATMab62HQDUWaYqaxBkPw8NC4XtaYX4W5IYwyrBdUmkq4xbJhpzHIOi+ww/bgNME8Prr4AqdNvXjnuuuBJ+qEANfAnI62gKflzFO6D1BQYAIpPLSBXU7vzxc0CH6VMR2uaa0pRx3NhzTDbgQ2Z1pdgjYCn9gfgS2MMbJqgLq9jRp6QE29s2zBxnRhcM8+acZsMyhmpvUvIoJAGzHx9SgKa5PGT3aTtxmXzoH/Pe8K9M8jJjIoM2CQ9J8yNEfeOBSRBZlQzMsXsYwNO47orGIbR5mYxvJf3fw/XbnnTuy9+aWb5KzbMP+J2fMZZomRul4WHGn/L8es/k2sVX5MGnXRi8wR2fs9btmIElUegcYJWOwhTjSWmlClBT6qqLkwNwmiLIh4zfUKF25zzwJJPJxoQ9JGofDcyz89uCtuNbawMF32bpjivQBf+7jno8rDEFNV7WLgMbrWRJpT22IgBcAMj+CUKD6FqcYoG2XwuXlw303oagOvKV6L9xiVRZU5T1ZiwjKewew+0FzcSO1qL8pPOM6aIRTpOybBJAxCImvEZ1gNITIHPG5+ayyvPXqbJyjk0kCrnwit0fh0Dbap5SQu246oYp6wUGUMwdQUdHnB3Y1PAG5OeMqBFyWuTDkHajUfq4fGZBDxHTyekYAubZ4O0XeNIMhMj/giHaXLYqLqcMsBEzsfgIicYsfSYERRtPNIG6Z7NUBhY9eG2jtej+EoWl+13zN+cfs5/Xr7Y62ZBV+pnP3TOU3799auuHQpX908gBcWe4LKUYKZVsRBj2PkiLDll/zFqAFqNYipqEYV0jZUmkGp+b+uYG+BtOo+pPwbB+Ln6JS46P19Sbexuu4MxSADOLtXj7/LTJj+f1F4tOpKyUKTtZKClNNng7qnNO8XyNP68Nd3tQrca2gb9tDGH1pybkXCySTRBOauTnANlxgIeboj0ifm5KXzxZ+kAzCIWvlncAC5+BP/wXjbumMJwTiwD2dgp7xT6BaQR4CSFWPLkJk1qG15IKlE2LwYRdVqtDvtQJdFqkLYsV9uRpk3LyTYmxUfyDgE+D01fMq/PcdPobYCaApkfIF2JGUSm0mGTUX62qbjDZ3A90men9VkscJw425hrOi5pi2tYj89Ag+Hw1qHU+HeRIzbAzQWst8xyb0s5cvuZr7/wpIGDzl5U+u2CAv7sY/f++2XNqQtj7XKKwuWia4BkUubcMuzUJERAzNLCqmtuGg1kfMQul74X8N2H22lIaXbiHWNoRvCLBB6sGm7c5FCzDJVTYxmgo3aiSdpgyeRWm003FbW7Ac+gJzUeN0qCIgXtxLQTB2ywqw5UjG5oEvXX4CPzzk2MXJKOOeT5StaBWzE3NzVjtZOv+u1aosv3ALRSl8/UKRtIstUXMxIRLwcmG9tRy3NmgM9YFqQL05enxisjZ14qwGVDnIb/pnnegIWRA+hz+bSATot+8PkyDQd9AFAPTNBq2tTGDaggeN8wnmE6i3NimEG9YLf8ea6J3g1BQc+lT1McLhGzHUhz8pnrZFvNdDCt55tcrcYIFPBkRBYRVK6gGQn/zERSCveeQNaFVghlraNEaM2UZUNhyzHWTPjgRUzByvHi+UdX7POcM5971hU37PK+vxMnWDDAX/nBdy7/4TWfumF1tHlgGosSIRaviptuQGAhrJIwfKUqcpdJTmyV8UpqbuoOb0yy7Ua0e++QAN2Gud/ZALYVwbdR/gAxBG2KGEIRBfOxNSzKgOOXpEiD/HYDeCnYobI0ZrExjXcv4KmlzOx3I4MIdi8JcqUY7OKcu7IAS0pA2RcPQGdpJwHLdFQc0Wra9Fy4EUT4xSzld3xRC7aYajQVg9wo2NFH22xp2pQtRpX2y8WubpIA3lhGJFFFEThrI2DFST4F8BEqkDGJStTo5coUmnawLVhWAK89AtnoUmsApCSZAT0xqfU598YCSGXlIWQYQ7jR15ipskJcMkFB837l3utr0A1ZYh8c5S0MRmHjcQOlIugGENX6RJCP/jtETk4FXQBuEBL5B4Myic2T18xrYRZEqM34bBkoKr35uClkvDHU1w/kh0uP1Qdues3/u/PUncDrLr90wQD/1hP3PzNT3PDZvF+PBfWSh0YtXhiBFy4aqlQyxVi2yR2QeWWhp5qHqrlrDe50mhBuBWCNyIr/vFOA77EU4FetWjkg2oNBFpqpzP/TZNPPJmedZZXK3e8cAnr1TXc34BnJFnMX7geDngHULhcgR2DlBpAPFsBr6pPXXAfdswSySWGqLu2yqPTFmsF7pFsMvrhhSK88NpfA+dS9gXZjcZBkWbQlFcE8PMARWUpmsQE1dYN002Qqi/UQnN7LjWJ8HBHxEufR43Nk0m7gDeRCXh4BXF4jCUl1pNyES0BCFBt4GsBS/rYphkT2mR83j6UX8BbsPAfbemt8RtOEnTSlUS5MY1bpY+Bg7XwClGPNJHC+n476shuM1Okj+0Brh6AXXkSzImlJlkCzwQnjHXa2YAN+C2MrFeySDGJyjZNKrpZM0HqklPr5az/xdaToFq+GfkEADwGFzjps4BN7Jv03JyAQRi/LeLgBFmUYwrJNFviwOn3St5cn38pUt8CbHeBp7krxCMErxBXOK2cDizTy7mieEKCbCfxPlrcyoDQ1yQwB00EMEqFXXXkSizHj5WFyctEwZVgoMHdreq9JUG9BxDiL3ZxEJVB0yUBD8Eim58BlYhR6AJ1vcmj/WyqPSSqLlNwQFiubdJQKMEnxxftl2orTYrQHnPbIt2YqXdFMSu9bS1JpmhP4Sv2VKLap/WfbfKlWk9bPDPIpF5+akx17a2SySSWgWhZ1KRBCanbPIWazBeDWtbCuxHRXylhxM4g9CdyXDO40kX6CjJsG92Om8UghJmj53MncpLXOpxUOa0/AGsqNxWWQab2sItQgIe9deg9SGZhD5+dx01AymMwoRAylyUYmcC8k2MgJwMz5I6LIlUriUzKZxoeC5IS10+aGzCYpUCJj3tBdz3vpx49cdvzpxVk87Hl5yYKs1Jtv/sfsFed+4Et7pvw/jSAaz4qiMvuqs+4bgGfTCpn0KYyl7YXjrJRnButmAfieTYKAt5NYuTCYOuLizQDsGfid4ZD2jvfbCeGRT2EQAZspKi2VJlxd/EuScoT5Bs1GwLM3PAkmZHbtPsBzE6NGR86b2oOkF5jA1NY5FIuQVeah7DPE+Xm4dqEuo711uQSuA5pusgw3GuegB42w60w7RQStWQI/ajSsAF7aU6kprilMRuvZoorv05oE1cK2u6ztOmtq/VmIQkIMmYlCdm/CpSOA1GdWK0rjBt1VYZ+3caW2BXipfmPKDmcC6GR4BwEP6vHQMHrNyybA0eHoQ4D75wbEeA2vo4b0a8dlMDwBZgK0fqEpwzAlkktCjaQvNdUozETeJ5uZmPUm2R42xyBVXN4DZiWikhMw4WugjBP4TJdyvl0IX+XEmp+vOfGCk4446U2T84LmWZxkQQB/9SUX5P/nG/96ZbpdeH4UQmuSrkrAM1QDGqTO/NKrmzvgu/vu1m2q7N+UcUbAc/Hasc1c/My1koseB19axjmxDTS09tRkSerBedgRymTh0dzj+9jDnEQNFphwwQS72mJrFg9pxy/h9bPZo2Y0lDwSwvWyeSS74HCUlM5lFwsHC54mOd0XFn4kMDFHA1IKWAtcTm2RQLtZIRLTAKBINWYNvtTn89/YXKjNJGpuouCiMbm5w1+gBSJAMaO7GATTohytwGsgoKAansfWYNdrk21EgDadugvLxfj5zH9La2nyAbBJ0z1hRSCfMYNnLEKiy9PA/YuFgc2OAVqMP9AAACVAeq6E97RhBuMRcv+0XowcRE8JD0F/kUQfQa28oxXEmgwoClhMEQ7bIKMQcimhYQnTfSmY95QF5x0i3eHVU2tu3+vEi05c8oC/6csXD1776Y/8W7wy/iJ2e6E8K8xf4IhBjhwPJQLuCHEbQTe7yrdr0ttFwBOZ9097rS4UGwfQVIvSObnYtKc8XAy8R+e3kWHH6DN8SCwMHowtMBLMRhXse84dnEDnImZgT14DU3p3anjbM59ZdQJa6Kq4HfriNE9JSWUAyW4GrEDUjjrMStjyV+vjarWf5O0ZD8D5rM+sz0vrHqg9hYsOeYxAg9Ks7zwuw9DTar1ud9kO00+euT54cR/o60uFDn9hrTn7XQO43WOmWc9z6HXSLWEKTeIGMLHjCCRmYOXAYxG/mjpZNmgAnq4MMw3MpyfRmsySgbSzDuMLZnoP4wgy4kuHYfCQSLtoesMPYTCXgGcWhN2HcB3kQES4ruQ5YMPFZlDDdTJozRomrj+8NBhrrrj9ued+4eS99z5paWv4e2+4On/JhWd+clU6/Eof5hQzXXWZgwYBsKUSSRWsLxYRWmJN74Pd1Z+nR+Y1A9BdfBqBNyYgd1/xPampGPTSFKFlfzEw1Rs8UtaWTSMyrbV7Ac+WVnqoNUNNJnQgRrm5CEXrqfZtCKFFN1r6owJmM+6ZgUsW8zDSLBx5WDkkynAT1Ndq9FlLidk4gw01PG90GFNhDclHYiXkk9OagMlKWcmEGBxi5FqGHU17mrw4QYK59e1wLPSZ7dgI5bVZH57juKTyDwCk5iUfvlpHcRDLihl/AFhbDdRKwLoh6OXZmlp6CsVen5GmyJFg7jTckEDkdCuDzUv4miY7EGMzFLnjGtgQg6ne0eFB1tegVBYbMouRcB3se4hs0D1jlex15370rrdBttbE2dWF/7jvXxCTnkG7NxyZP3tVxvsI1AkmcTOazYAP0h/YAGjCBch/ciMIwZQmBXH+jq3B3uVZK7B52O8NROTl39IDjT8o2OVHLvLOOGPbYIJ2roJKzivUyvm8/p2TBD1ga5JLzlxuvxv3YJNLAZxVldK0TbWMaEOW3+JnWjtZNMbIppLye+GX46swhSwKUmq+aRqp59IOvjTlGc1n6+000nvknnPGHbvokpLL+AKJQPaKNB1mcun8TlGyn8C2AC9MSLbZonhxP+bfM6WTQAxC2oEx7i9WJF4L6yMF7Z5D4HJiarME32T2HtNqADzdGqYI2Xas06XTWIm95jovkKOxesfK2fQxr4OhN4Z7edTJh2DtAf4XhqzZOYf3lc2mQSPHGkPa0kc+fjJoP1as+r9YuXLdl566/+nfPvS08yZ27onv2qsXbKVece5LV9/x8/++Dnn2g3WGNzQqBBHnzo/ccY3BDuZ+sf1N64W+1f1s5xKnLYDpIO89hZBGjGbR4Iz+VemWXPssC6VWYucdbTwpFpu4tXw9+egMTukbtWzVgh4mvjTZXDAxPv7TpY1IULMSTdJPdqNS7ciOLdoUVDcssaw6QTF9L+8sCbcll8cMOMQ2eBQKRcQzkDYlRZyVdGQ+snJRLAprgpNYUgHgSb5hvAC+PSoPKUOh+ErHOH022nqaFWwmyq12Aywqjus2gJ52t+oSqPdnMzI9AVxj/sdRc05LpEFLhRxX0fDoJoSAZRaAJ/lINnM+Mw6tRNkqAR8gPSl9AdnNljtPp2JQ3Tvrb4ZZHm3u1yoJu2kx8ByqImqAG6giTB9wLjnGFNMIijX9JlpnBSjnrUzU6s0gEX4onM/fXEvlbkmtXn7bm8676dHHf7jz/4oFXannnbj6lGjQuBRweVq4iY7tAFVM2gvBVISGp4kYAep3BHibZ1VQ9QLbXrrSRjXFt/V3Liru/jI+WIIp+vg4RojmeyqZV/DDTGWQhj4qF4AOgCQZhWkdtqPWzyPgmZ/lIuIhLoB8rrK9duZ793HuIIaxvWduNrwAwSclipjgnVTNcYMyQxll1LWWx9rZ7Oxl1+C4anLV6ZNCItTwko2AhmcjzqnxKW8cgI+hawsn30j7bbll3ruSYIj9YnFKIvYpjnqSLj/aIJNViNpMstkABNDpGSTqJmy5kI++nXjiMt8DGW2Zt4V9CSiF7EH554qAAREKUeIIsLcxekMgSNsZjwHn4gXTLyQfH5ZHrd5oIyCHjv2ocPdhVuC6EpkohpukofSbaEfbzraawSDuy2/W/KBWQfKs1oRLHTTSSX8A14dQDuxqWV5QAGwCalW/bFS0RbkHqHmI+AQngXLNtVtlvwofPWiGW7Ug5Fch5jJ2gGIC9bK4yKlKpX5fenBoy8r9n37Xy0957rh/xJt2a9/6BQU8hfPhNz5v/9//5u6zU377BctHcsuqU5tj1fJkCKSLUNAKQklyM6FOBZBGE2uO13j4opK33uF7o/zik1rfdCe+cxkJC4zRWePn2vnqSvXlHDkzfdW4HWI+d0g49NmYntEGHtv6ziaQUloqfivJ393vPFcKHVMsyajj44p5MX0T6B2fLNdgbpqEGK4/HjPdFd2QyIvv7pTY9Ig+iUux9SoD/OKNA3y4SraSQN0QVrhsKH67hjwXcYKPqUM7A7yhUtBGAX6oVQRI6wDRKBzkIO6Hquj5XovG/SLM5wI2xRKuGeDzR9iTFzGTOrb8MkKl5VAsUsJnTqH+vohpOfeFo/EqbgGmQrIczWXr6Ui0UY0HjQQqUvZIjLSD5HLcYN5LLh9trQs/2lyeXYsi80zLW7ZMF8nhh4uPhfvfrqlHN1PQ/NOvhm+P7eWv3nKX/9vJBJiuf/Aj0aRfKD7sZzOr2kED4316jv2Gt7fjQqiPrJfX3rPaa8Zi48Hhh78RG86sON7bP+kC/2XBAc/rv/HGGyNfufSstRMPblkR8xurMDEShKZkYnJqfM1gLnEk1mAOYhqCJkJSuJVEWglUEbiNeIRBuy7XyJ6N/J0EpLQ7EbcB6laasfI3/l5/N3sbm5vLTKB0TTeN8tuj92fzO276M2UobyDImOrF5FhoNlltUGg0+VAqZP+HxYHY2O/wuxJ+R8Kp9KqCJobfE60gAg3vFI1ToeegiwNoGn6HMqE6B4cEqQL46KzFYkGSfC6pDb2bhYROcDD4DBcX2A3w0igMYAz1aoax5yItBkZrIpyoh2LpUj6brPiJSCUeydSj7aAeiiYfzudTjfpAKsinVgZDcb8RjexVf97atQx+NH84Ouoff/zxO6gwWuAV7E6/UxJYFMBv74q46371q6dHqg+sjT58329jIdQNFsrj2bHKZBK+YQw+NVz+BtrghbDaUagaaUWaDXQIhz3J7BAKHyLRIBRuhNjyBBnQZjsWivgxeFVxaBeWP3HSAjJNYfYnjYDsQdYPW6xAMcpe7KMUEkwVdoaNtmOoOMFvA/CpG7FQVPIzuI4E2MBilIZ9WJ6tMOZF4JNg98E+aE2OFwZgjcLmB7uFPVjC2KFafh2fWA/akWoiHi4A0DX0AahgykvZT/mVuB8uIRCGli1onLTm4Mf2eVqlNh4ZxF51uPeUGGKc69YFDkQ7tY7di2cpgd0K+Fleo3uZk4CTwDxJwAF+ngTpTuMksBQk4AC/FJ6Su0YngXmSgAP8PAnSncZJYClIwAF+KTwld41OAvMkAQf4eRKkO42TwFKQgAP8UnhK7hqdBOZJAg7w8yRIdxongaUgAQf4pfCU3DU6CcyTBBzg50mQ7jROAktBAg7wS+EpuWt0EpgnCTjAz5Mg3WmcBJaCBBzgl8JTctfoJDBPEnCAnydButM4CSwFCTjAL4Wn5K7RSWCeJOAAP0+CdKdxElgKEnCAXwpPyV2jk8A8ScABfp4E6U7jJLAUJOAAvxSekrtGJ4F5koAD/DwJ0p3GSWApSMABfik8JXeNTgLzJAEH+HkSpDuNk8BSkIAD/FJ4Su4anQTmSQIO8PMkSHcaJ4GlIAEH+KXwlNw1OgnMkwQc4OdJkO40TgJLQQIO8EvhKblrdBKYJwk4wM+TIN1pnASWggQc4JfCU3LX6CQwTxJwgJ8nQbrTOAksBQk4wC+Fp+Su0UlgniTgAD9PgnSncRJYChJwgF8KT8ldo5PAPEnAAX6eBOlO4ySwFCTgAL8UnpK7RieBeZKAA/w8CdKdxklgKUjAAX4pPCV3jU4C8ySB/w8Q8BBdABuLlgAAAABJRU5ErkJggg==;points=[[0,0,0,0,0],[0,0.25,0,0,0],[0,0.5,0,0,0],[0,0.75,0,0,0],[0,1,0,0,0],[0.25,0,0,0,0],[0.25,1,0,0,0],[0.5,0.39,0,0,0],[0.5,1,0,0,0],[0.75,0,0,0,0],[0.75,1,0,0,0],[1,0,0,0,0],[1,0.25,0,0,0],[1,0.5,0,0,0],[1,0.75,0,0,0],[1,1,0,0,0]];" parent="1" vertex="1">
          <mxGeometry x="900" y="540" width="252" height="200" as="geometry" />
        </mxCell>
        <mxCell id="UPfVKm66rrc1FRri50bx-5" style="edgeStyle=orthogonalEdgeStyle;rounded=0;orthogonalLoop=1;jettySize=auto;html=1;entryX=0.5;entryY=0.39;entryDx=0;entryDy=0;entryPerimeter=0;exitX=1.004;exitY=0.644;exitDx=0;exitDy=0;exitPerimeter=0;curved=1;sketch=1;curveFitting=1;jiggle=2;shadow=1;" parent="1" source="YhBpW25rhfoBZGBujpxh-1" target="UPfVKm66rrc1FRri50bx-4" edge="1">
          <mxGeometry relative="1" as="geometry" />
        </mxCell>
      </root>
    </mxGraphModel>
  </diagram>
  <diagram name="Fatores de formação do solo" id="TJWSEH0htABvphsLBdkt">
    <mxGraphModel dx="978" dy="623" grid="1" gridSize="10" guides="1" tooltips="1" connect="1" arrows="1" fold="1" page="1" pageScale="1" pageWidth="1169" pageHeight="827" math="0" shadow="1">
      <root>
        <mxCell id="_LUuFCWW6B15F6YBcjGL-0" />
        <mxCell id="_LUuFCWW6B15F6YBcjGL-1" parent="_LUuFCWW6B15F6YBcjGL-0" />
        <mxCell id="_iAweikSCCTYVctifybx-0" style="edgeStyle=orthogonalEdgeStyle;rounded=0;orthogonalLoop=1;jettySize=auto;html=1;curved=1;flowAnimation=0;sketch=1;curveFitting=1;jiggle=2;shadow=1;exitX=0.553;exitY=-0.008;exitDx=0;exitDy=0;exitPerimeter=0;" edge="1" parent="_LUuFCWW6B15F6YBcjGL-1" source="_LUuFCWW6B15F6YBcjGL-7" target="_LUuFCWW6B15F6YBcjGL-9">
          <mxGeometry relative="1" as="geometry" />
        </mxCell>
        <mxCell id="_LUuFCWW6B15F6YBcjGL-7" value="Fatores de &#xa;formação do solo" style="rounded=1;whiteSpace=wrap;fillColor=#2892D7;sketch=1;curveFitting=1;jiggle=2;shadow=1;spacing=10;fontSize=20;fontStyle=1" parent="_LUuFCWW6B15F6YBcjGL-1" vertex="1">
          <mxGeometry x="463" y="348" width="243" height="131" as="geometry" />
        </mxCell>
        <mxCell id="_LUuFCWW6B15F6YBcjGL-8" value="Tempo&#xa;&#xa;• O tempo é o fator responsável pela duração do processo de formação do solo (intemperismo).&#xa;&#xa;• Quanto maior o tempo de exposição das rochas aos agentes externos, mais desenvolvido e espesso será o solo.&#xa;&#xa;• Solos jovens apresentam pouca diferenciação de horizontes; solos antigos, por outro lado, possuem camadas bem definidas.&#xa;&#xa;• O tempo também influencia na acumulação de matéria orgânica e na evolução das propriedades químicas.&#xa;&#xa;• Exemplo: solos tropicais antigos, como os latossolos, muito intemperizados e pobres em nutrientes." style="rounded=1;whiteSpace=wrap;fillColor=#6DAEDB;sketch=1;curveFitting=1;jiggle=2;shadow=1;spacing=10;align=left;fontStyle=1" parent="_LUuFCWW6B15F6YBcjGL-1" vertex="1">
          <mxGeometry x="60" y="54" width="280" height="360" as="geometry" />
        </mxCell>
        <mxCell id="_LUuFCWW6B15F6YBcjGL-9" value="Clima&#xa;&#xa;• Um dos fatores mais importantes na formação do solo.&#xa;&#xa;• A temperatura e a precipitação determinam a intensidade do intemperismo químico e físico.&#xa;&#xa;• Climas quentes e úmidos aceleram a decomposição de rochas e matéria orgânica.&#xa;&#xa;• Climas frios e secos retardam o processo, formando solos rasos.&#xa;&#xa;&#xa;• Exemplo: regiões tropicais possuem solos profundos; regiões áridas, solos pouco " style="rounded=1;whiteSpace=wrap;fillColor=#6DAEDB;sketch=1;curveFitting=1;jiggle=2;shadow=1;spacing=10;fontSize=14;align=left;fontStyle=1" parent="_LUuFCWW6B15F6YBcjGL-1" vertex="1">
          <mxGeometry x="815" y="55" width="270" height="365" as="geometry" />
        </mxCell>
        <mxCell id="_LUuFCWW6B15F6YBcjGL-10" value="Relevo&#xa;&#xa;• O relevo influencia o escoamento da água, a infiltração e a erosão.&#xa;&#xa;• Em terrenos inclinados, a água escorre rapidamente, dificultando a formação do solo.&#xa;&#xa;• Em áreas planas ou baixas, a água se acumula e favorece processos químicos de intemperismo.&#xa;&#xa;• Relevos suaves tendem a formar solos mais espessos e férteis.&#xa;&#xa;• Exemplo: encostas de morros possuem solos rasos e pedregosos, enquanto planícies apresentam solos profundos." style="rounded=1;whiteSpace=wrap;fillColor=#6DAEDB;sketch=1;curveFitting=1;jiggle=2;shadow=1;spacing=10;align=left;fontStyle=1" parent="_LUuFCWW6B15F6YBcjGL-1" vertex="1">
          <mxGeometry x="800" y="470" width="240" height="330" as="geometry" />
        </mxCell>
        <mxCell id="_LUuFCWW6B15F6YBcjGL-11" value="Organismos&#xa;&#xa;• Incluem plantas, animais, microrganismos e a ação humana.&#xa;&#xa;• As raízes das plantas ajudam na fragmentação das rochas e liberam substâncias que alteram os minerais.&#xa;&#xa;• A matéria orgânica decomposta por bactérias e fungos enriquece o solo com nutrientes.&#xa;&#xa;• Minhocas e insetos revolvem o solo, melhorando sua aeração e estrutura.&#xa;&#xa;• A ação humana pode modificar o solo tanto positivamente (adubação, manejo) quanto negativamente (erosão, contaminação)." style="rounded=1;whiteSpace=wrap;fillColor=#6DAEDB;sketch=1;curveFitting=1;jiggle=2;shadow=1;spacing=10;fontStyle=1;align=left;" parent="_LUuFCWW6B15F6YBcjGL-1" vertex="1">
          <mxGeometry x="80" y="460" width="240" height="310" as="geometry" />
        </mxCell>
        <mxCell id="_iAweikSCCTYVctifybx-2" style="edgeStyle=orthogonalEdgeStyle;rounded=0;orthogonalLoop=1;jettySize=auto;html=1;entryX=1;entryY=0.433;entryDx=0;entryDy=0;entryPerimeter=0;exitX=0.5;exitY=0;exitDx=0;exitDy=0;curved=1;sketch=1;curveFitting=1;jiggle=2;" edge="1" parent="_LUuFCWW6B15F6YBcjGL-1" source="_LUuFCWW6B15F6YBcjGL-7" target="_LUuFCWW6B15F6YBcjGL-8">
          <mxGeometry relative="1" as="geometry" />
        </mxCell>
        <mxCell id="GG3Sq2PJR-igwq31KCNF-0" style="edgeStyle=orthogonalEdgeStyle;rounded=0;orthogonalLoop=1;jettySize=auto;html=1;entryX=1.005;entryY=0.666;entryDx=0;entryDy=0;entryPerimeter=0;exitX=0.5;exitY=1;exitDx=0;exitDy=0;curved=1;sketch=1;curveFitting=1;jiggle=2;shadow=1;" edge="1" parent="_LUuFCWW6B15F6YBcjGL-1" source="_LUuFCWW6B15F6YBcjGL-7" target="_LUuFCWW6B15F6YBcjGL-11">
          <mxGeometry relative="1" as="geometry" />
        </mxCell>
        <mxCell id="GG3Sq2PJR-igwq31KCNF-1" style="edgeStyle=orthogonalEdgeStyle;rounded=0;orthogonalLoop=1;jettySize=auto;html=1;entryX=0.011;entryY=0.543;entryDx=0;entryDy=0;entryPerimeter=0;exitX=0.5;exitY=1;exitDx=0;exitDy=0;curved=1;sketch=1;curveFitting=1;jiggle=2;shadow=1;" edge="1" parent="_LUuFCWW6B15F6YBcjGL-1" source="_LUuFCWW6B15F6YBcjGL-7" target="_LUuFCWW6B15F6YBcjGL-10">
          <mxGeometry relative="1" as="geometry" />
        </mxCell>
      </root>
    </mxGraphModel>
  </diagram>
  <diagram name="Processos de Formação so Solo" id="veA64tBxSf1DK2Ua5Awj">
    <mxGraphModel dx="1113" dy="827" grid="1" gridSize="10" guides="1" tooltips="1" connect="1" arrows="1" fold="1" page="1" pageScale="1" pageWidth="1169" pageHeight="827" math="0" shadow="1">
      <root>
        <mxCell id="lwWAjvL6sQFBWh3Ai02s-0" />
        <mxCell id="lwWAjvL6sQFBWh3Ai02s-1" parent="lwWAjvL6sQFBWh3Ai02s-0" />
        <mxCell id="lwWAjvL6sQFBWh3Ai02s-3" value="" style="edgeStyle=orthogonalEdgeStyle;rounded=0;orthogonalLoop=1;jettySize=auto;exitX=1;exitY=0.25;exitDx=0;exitDy=0;entryX=0.5;entryY=1;entryDx=0;entryDy=0;curved=1;sketch=1;curveFitting=1;jiggle=2;shadow=1;spacing=10;" parent="lwWAjvL6sQFBWh3Ai02s-1" source="lwWAjvL6sQFBWh3Ai02s-7" target="lwWAjvL6sQFBWh3Ai02s-9" edge="1">
          <mxGeometry relative="1" as="geometry" />
        </mxCell>
        <mxCell id="lwWAjvL6sQFBWh3Ai02s-6" value="" style="edgeStyle=orthogonalEdgeStyle;rounded=0;orthogonalLoop=1;jettySize=auto;entryX=0.5;entryY=0;entryDx=0;entryDy=0;curved=1;shadow=1;sketch=1;curveFitting=1;jiggle=2;exitX=-0.012;exitY=0.626;exitDx=0;exitDy=0;exitPerimeter=0;spacing=10;" parent="lwWAjvL6sQFBWh3Ai02s-1" source="lwWAjvL6sQFBWh3Ai02s-7" target="lwWAjvL6sQFBWh3Ai02s-11" edge="1">
          <mxGeometry relative="1" as="geometry" />
        </mxCell>
        <mxCell id="uSa7a6b3p-NF6S3WDjpD-2" style="edgeStyle=orthogonalEdgeStyle;rounded=0;orthogonalLoop=1;jettySize=auto;html=1;entryX=0.5;entryY=0;entryDx=0;entryDy=0;sketch=1;curveFitting=1;jiggle=2;shadow=1;curved=1;" edge="1" parent="lwWAjvL6sQFBWh3Ai02s-1" source="lwWAjvL6sQFBWh3Ai02s-7" target="uSa7a6b3p-NF6S3WDjpD-1">
          <mxGeometry relative="1" as="geometry" />
        </mxCell>
        <mxCell id="lwWAjvL6sQFBWh3Ai02s-7" value="Processos de&#xa;Formação&#xa;do Solo" style="rounded=1;whiteSpace=wrap;fillColor=#2892D7;sketch=1;curveFitting=1;jiggle=2;shadow=1;spacing=10;fontSize=24;fontStyle=1" parent="lwWAjvL6sQFBWh3Ai02s-1" vertex="1">
          <mxGeometry x="463" y="348" width="243" height="131" as="geometry" />
        </mxCell>
        <mxCell id="lwWAjvL6sQFBWh3Ai02s-8" value="Adição&#xa;&#xa;• Corresponde à entrada de materiais e substâncias no sistema do solo.&#xa;&#xa;• Ocorre por meio da deposição de folhas, galhos, pó, sedimentos e restos de organismos.&#xa;&#xa;• Também inclui a chegada de sais minerais e nutrientes trazidos pela chuva, vento ou enxurradas.&#xa;&#xa;• Esses materiais enriquecem o solo e ajudam na formação do horizonte orgânico (camada superficial rica em húmus).&#xa;&#xa; • Exemplo: queda de folhas em florestas tropicais, deposição de cinzas vulcânicas e sedimentos fluviais." style="rounded=1;whiteSpace=wrap;fillColor=#6DAEDB;sketch=1;curveFitting=1;jiggle=2;shadow=1;spacing=10;align=left;fontStyle=1" parent="lwWAjvL6sQFBWh3Ai02s-1" vertex="1">
          <mxGeometry x="30" y="30" width="240" height="350" as="geometry" />
        </mxCell>
        <mxCell id="lwWAjvL6sQFBWh3Ai02s-9" value="Translocação&#xa;&#xa;• É o movimento interno de partículas e substâncias dentro do próprio solo.&#xa;&#xa;• A água da chuva infiltra-se e transporta argilas, sais minerais e matéria orgânica para camadas mais profundas.&#xa;&#xa;• Esse processo cria a diferenciação entre horizontes do perfil do solo (camadas com características distintas).&#xa;&#xa;• A movimentação pode ocorrer de cima para baixo (iluviação) ou de baixo para cima (capilaridade).&#xa;&#xa;• Exemplo: deslocamento de argila e ferro do horizonte A para o horizonte B." style="rounded=1;whiteSpace=wrap;fillColor=#6DAEDB;sketch=1;curveFitting=1;jiggle=2;shadow=1;spacing=10;align=left;fontStyle=1" parent="lwWAjvL6sQFBWh3Ai02s-1" vertex="1">
          <mxGeometry x="750" y="30" width="360" height="280" as="geometry" />
        </mxCell>
        <mxCell id="lwWAjvL6sQFBWh3Ai02s-10" value="Transformação&#xa;&#xa;• Refere-se às mudanças químicas, físicas e biológicas que ocorrem dentro do solo.&#xa;&#xa;• Os minerais das rochas sofrem intemperismo químico e se transformam em argilas.&#xa;&#xa;• A matéria orgânica é decomposta por microrganismos e convertida em húmus.&#xa;&#xa;• Essas transformações são essenciais para a fertilidade e a formação de novos compostos estáveis.&#xa;&#xa;• Exemplo: transformação de feldspato (mineral) em caulinita (argila) e de resíduos vegetais em húmus." style="rounded=1;whiteSpace=wrap;fillColor=#6DAEDB;sketch=1;curveFitting=1;jiggle=2;shadow=1;spacing=10;align=left;fontStyle=1" parent="lwWAjvL6sQFBWh3Ai02s-1" vertex="1">
          <mxGeometry x="860" y="440" width="260" height="340" as="geometry" />
        </mxCell>
        <mxCell id="lwWAjvL6sQFBWh3Ai02s-11" value="Remoção ou perda&#xa;&#xa;• Envolve a saída de materiais do sistema do solo para o exterior.&#xa;&#xa;• Acontece principalmente pela erosão, lixiviação (lavagem de nutrientes) e escoamento superficial da água.&#xa;&#xa;• É um dos principais fatores de empobrecimento e degradação do solo.&#xa;&#xa;• Também pode ocorrer pela retirada de nutrientes devido à exploração agrícola intensiva.&#xa;&#xa;• Exemplo: solos expostos sem vegetação sofrem remoção rápida de partículas finas e matéria orgânica." style="rounded=1;whiteSpace=wrap;fillColor=#6DAEDB;sketch=1;curveFitting=1;jiggle=2;shadow=1;spacing=10;align=left;fontStyle=1" parent="lwWAjvL6sQFBWh3Ai02s-1" vertex="1">
          <mxGeometry x="100" y="470" width="250" height="320" as="geometry" />
        </mxCell>
        <mxCell id="KFxj58KLFrxMo15lf7sR-0" style="edgeStyle=orthogonalEdgeStyle;rounded=0;orthogonalLoop=1;jettySize=auto;html=1;entryX=1.042;entryY=0.543;entryDx=0;entryDy=0;entryPerimeter=0;curved=1;strokeColor=default;sketch=1;curveFitting=1;jiggle=2;shadow=1;exitX=0;exitY=0.25;exitDx=0;exitDy=0;" edge="1" parent="lwWAjvL6sQFBWh3Ai02s-1" source="lwWAjvL6sQFBWh3Ai02s-7" target="lwWAjvL6sQFBWh3Ai02s-8">
          <mxGeometry relative="1" as="geometry" />
        </mxCell>
        <mxCell id="uSa7a6b3p-NF6S3WDjpD-0" style="edgeStyle=orthogonalEdgeStyle;rounded=0;orthogonalLoop=1;jettySize=auto;html=1;entryX=-0.01;entryY=0.569;entryDx=0;entryDy=0;entryPerimeter=0;curved=1;sketch=1;curveFitting=1;jiggle=2;shadow=1;" edge="1" parent="lwWAjvL6sQFBWh3Ai02s-1" source="lwWAjvL6sQFBWh3Ai02s-7" target="lwWAjvL6sQFBWh3Ai02s-10">
          <mxGeometry relative="1" as="geometry" />
        </mxCell>
        <mxCell id="uSa7a6b3p-NF6S3WDjpD-1" value="" style="shape=image;verticalLabelPosition=bottom;labelBackgroundColor=default;verticalAlign=top;aspect=fixed;imageAspect=0;image=data:image/jpeg,/9j/4AAQSkZJRgABAQAAAQABAAD/2wCEAAkGBxMTEhUTEhIVFhUXFxoYGRUWFhcdGBcaGBUXGBgWGRgYHSggGBolGxcXIjIiJSkrLi4uFx8zODMtOCgtLisBCgoKDg0OGxAQGy0lICUtLy0vLTUtLS0tLS0tLS0tLS0tLS0tLS0tLS0tLS0tLS0tLS0tLS0tLS0tLS0tLS0tLf/AABEIAL4BCQMBIgACEQEDEQH/xAAbAAABBQEBAAAAAAAAAAAAAAAGAAIDBAUBB//EAEIQAAIBAgQDBQUGAwcDBQEAAAECEQADBBIhMQVBUQYTImFxFDKBkaFCUrHB0fAjkuEHFRZTYnLxgqLSJTNDY7IX/8QAGQEAAwEBAQAAAAAAAAAAAAAAAAECAwQF/8QAKxEAAgIABAUEAgIDAAAAAAAAAAECEQMSITETFUFRoQQUYWIiMgWRQlLh/9oADAMBAAIRAxEAPwD0OKUU6lXiUeoMiuxTqVFANilFdpRRQHIpRXYpRRQDYpRT6zcfxhbbZVXMeesAeXrRQWX4rsVkLxpi0C2B1kk/DSK08JilcdCNx+fpRoBJFKKfpS0ooLGRSin0qKCxkUop8Glkp0KxkUop/d0u7ooLI4pRUnd0shpUOxkUop1KigsbFcp9dooLI6VSZRSyUUFkdKn5KWQUUFjKVPgUqKCxkV3LTq5RQWTd35V3uj0qzlNLKa3yGWYq935UslWspqtjcaloS51+6Nz8KMiDMNyU4WqhwfFrb8iv+6PxFaIUUKCYOTKvc1DjLqWlLPt9Seg867xbiK2RHvOdl/M+VC2Je5dOdyTyHTXkBypSSQJtncXxa7cMDwg/ZXf4nc1BhLGs9NPjVq3goHmdz0HOKsLZjQVg2aIqWFif9xpXbjIyuhgjT58j5VZt2YFONmd6Va2PoaXDeKpdhSMr9Dsf9p/KtEoKFUw32Ty1U8/3NbnD8dIC3ND97kfX9a1i+jIaLsClU62Z2rvcGtMjJzEGlKBU/cmud0aMrFmRFlpZKk7ul3dGULI8lLJUuQ13KaeULIclcNqp4NRYjEokZzE7dTHQUZV1C2M7mmtbjeqWL40AP4amepH5CsG9cztmYOT1M1lKUVsWk+oUZ1+8PmKr3sdaXdvkCY+QodzBpEz/AKSI+tQMXHhjQ7A6/I1GYoI8VxW2gkSw6rGnzpuF4zacwZU8s2x+I/Oh5CSCpGwMTuIqTBWtJ+VGYAw7vyrvdHpVTgTEoyzsfoR/Q1p5K1irVkN06K/dHpS7o9KsZDXcpqsgsxI2LtjXMIy5j6cvwNQHidoDxMJ6AE69NPxoJS6x8taRut0rzeZzv9UcucI+IcZzAraUrP2jv8ANvWstMCRqRrOg6nzqklxufp6U4424TvtpT5jb1RSxUjUs4PKZnU7+c6irAuMgOUn0H70rCF945x6104m5O59f36Uvfr/XyPjfBft4Msxa5z11O/8ASrBsiRrtsPzrFOLeNZ6fvypG8/OamXr30iHGNw2xXMo61hNfbmDS75ulS/XS6RQcc3DHWu5R1rDF1ulIXWpe9n2Qcc3e6FJbU7Vhi8/n+/8AinG+425/v86peu11iPjmy+Fkbkehj59abZwzr7rmPIkH5jeslcdc92Trrr8vzrn943BpJ01/f75mtV66PYXGRu2rt5DK3C3+m4Z+v6RWhY4ym1wFG9JHwIoSOPuHn+xr+dI8UuHWT8vj+/jVx/kUujJeLENRxOz/AJg+R/SrNtlb3SDpOnSvPhimb9/D8vpT0xlxDKkqTzU/pRzNZv10FnPQABMaTAMeR2PpUL4i2N2G5Hy0Og86CjxW9IOcyZHpLAkeWoB/ZqL2lwdJ/X19ab/k10iCmuoaX8fbAlfEegkfOdqweI5rpBYDTYDSJ3g9dBWWnErgjSdefP11pLj3HKSR/Wf31+Uy9fGXQuOLFF5MOR1PrvXe4rP9vuLBOuuxpPjnJnaeVZe7hWxfuEXzhgeVNfDg7/8AFZ4vPMaiaQusazfrH0XkXuPgtXMPLgzt9B51YFkAabCswXm6UluMeVJ+tl2QvcfAS8DuKrNJABXn5EfrWvcxltVJJGnKRPKYE6x+RoEztSDtE/StI/yM4xqkRLEt2HYx9qJzry59Y/Wp+9T76/zCvPc79K7mbp9RVr+Un1iv7FmMz27zpe3edEjY1BuF+Qpi49eix10rXln28GeR9we9u86Xt/nRI2MEaKD8BXVxY+6B8BRyz7eA4b7g17d50vbvOiQYxTsF+QpDGrMZR/KKOWfbwHDl3Bz27zrnt3nRI2KHIL8QK57UI1yz1yijln28Bw33Bz2/zpe3edEYxyxMA+gFOGLX7o+Qo5Z9vAcN9wa9u86Xt3nRC3EUBiB8v6U44oCTAPllFHLPt4DhvuDnt3nS9u86JFxan7I+Qp3tS9B8hRyz7eA4b7gz7d50vbvOiQ4wTGQesCu+1L0HyFHLPt4Dhy7g17d51327zojOMWYyj5Cu+1L0HyFHLPt4DhvuDXt3nS9u86Jfal6D5Cmri9dVWP35Ucs+3gOG+4Oe3edL27zojfGqPsz6AUhjBE5R6ECjln28Bw33Bz27zpe3edEdvFjmqj5U72peg+Qo5Z9vAZH3Br27zpe3edEjYocgvxApLihzCz5AUcs+3gMj7g37d50vbvOiRsYo5D5CkuMU6wPkKOWfbwGR9wc9u8657d50SNjFH2QfQCmjHpzAHrlo5Z9vAcN9wd9u86Xt3nRKMWp2C/IUvbF6L8hRyz7eAyPuDXt3nXfbvOiI4gTOnpA/Sne1L0HyFHLPt4/6GR9wJxHaRSctpGuHrsv11+gqp/e9/b+EvorH8WqlZuZfd0p6qWM/WuiWNJntQ9NBdLLLcUvn/wCUj0VR+Rqvcct77uw6F2/Dap+HcIxOJZhhkXKpgu50JG4G+3pXMTgL1i4LeItqCQcrKZUxuPX5UpcSrZUeEpZVVlQYdQZtZkP+kmfpV7D4++pg3Z/3r+Yg00Wx+5qK8jE9azjiNbMuWFF7ouDj14fYQ/8AUf0rh7QXv8tP5jWf3bdDUbvAPlWnGn3MvbYfY0z2gv8A+Wn8x/WnDtHd52R8H/pUHZdMLezPi7qhRIFnNlzaDxMxIJHkOlUrz2u9uCxPcgjLJJjTUAncTWrliKN2ZLDwpSypGq3aN+VjXzcfpUf984ljAyL6Ak/UxWWS7Mtu0he42iqBJPw/e1TYmzesOqX17t2QOo6qZEeTCCCKhzxGrNFg4SddSzcxd6fFdefXL/8AmKha4TuzH1Zj+JqIvStI9xxbtIXuNso6dSdgPM1ncpM2ywitkLulmYg9QSPwqVbtwe5duAj/AFsR8QTEVtcU7J9zhTebEE3lUsba5e701K7T5TPw5UPWrxIBBiRVSjKHUiMoYmxvcM48GOS7Cv1+y3p0Pl/xV9saAfFctgebj9aEroDCCB6xr86rHCoNyR8R+laxx9NTnl6RN6BXjOO2E1zB25BNfrsKpJ2kuNtaAHUuf/GsWyiDaD9TU2apljy6Fw9LBbmp/f10bW1Pq7H8q6vHcRv3KkeTRWVmrrXCdzU8aZftsPsbJ7REe/ZuL5qQ36VIvaSyBqbnxXX6aVg5qWaqWPIh+kgbh7S2z7pc+if1qNu0DfZRj5uQo+Qk1j5qWak8eXQa9Jhrc0m41fPNF9FJPzY/lURx11jrecekD/8AIFUs1LNWbxJvqarBw1siYswMi7cn7wdvzNWbXFrq75bg/wBQhv5l0+lUM1LNQpyWzHLChLdG/a7QJHiR19AGH/br9KlXjuHOveAHzVgfqKHUcA6ifjUxtTJKiI2JrVY8upzy9JDobacdtTrdWPIN+lP/AL9sf5o+TfpQqbS/dFc7lfuiq9x8E+zXcWarOJLLZYr7wHyk6n4Cu2cOBqdT9KsTXK3qdyWho9m+09q3aS2hCZRqraSdyZnxayao9sOPLda2LZDOHzaaxoRE+c7VTu4K226L6gQfmK5hsBbQyq69SSY9J2rd46aqjkXpWp5rLlTpYMAwCOlVppZq5TtJjbmY2HI71Eyg7iuTSmgCq/Dk5KvxApqWypErI8qtM4GpMDzrlu8G90g+lVmZNIo3bZzh7ZdGUyrCQw9CKtYLiz2yq4lTisPJJt3RmdTB8VtmMqZidYIn1qea42u+tXHFcSJYSluY+CY5dREkmBoBJmADsKsYfFXbLm5YfK5XKZAIKkzGu21WLmFHLSq7Ydhyn0pqetoTh+OVjMRisReEX7zFfuCAPiAIply+F0+gp5QjkflVPFKZmqvM9RKKitAvwHZJ7qK/tVgAxohzkTyklRNW+zfZzA3Em+xN2TNo4m2zBeTEWNusSY60H4PF4RFGbBNcucyb+VD55Qh+VW8F2nuWWY4XD4axm0JVGd4mYzux0nkABpXTFQRyyeK9EbPEezWCW81sYoqXI7mIZB4f/bd9s5aIll0I3rAx+Gu4a4bV4a8mEwwkjMpIGZZB18qq8V4pfxJnEXWucgCAFE7woAAn0ohxd72rhguuZvYZ8hYxmdTlAkk5m8LLtpKtUyUZbFxlOFZupj5qWaq2Gbw1IWrmo6bJc1LNUl7Bsti1iCfBdZ1HhbwlDAknQ5oJEdD51Wmm4tbgpJ7EoapbgUDRpPSKdw3g2KxALWLRZRPiMAGN4nf4VVxNq5ac27yFH6Hn5gjQ/CnkdWTni3Vj81LNUU0pqaKskLbQCSTAAEknoANzSdirFHRkYfZdSD8jVjgvFvZb3em0bnhhSIlCTqQDuSNJ9etO47xhsXe75kywgQT7xgkkmPX9zV5Y5bM88s9VoVs1KaimuzUUa2SZqWaklhjy+dSeyHqPrStBqW5qLEYgIJPppXZqrxNJQxy1qYrUpvQtWb4YSpmpJrMx+DNnLdtMWs3BKPHztvGgdToeu43qXD49W3OU+e3wNXPDaJhiKRp2cJde13yqq2jI767cRLYgkGZOY6g6BZNUcUlvIBauX7l7NJuFe7sZY2VWOc6xqQJ6VxLCAyORJAkkAncgTAJgajoKka8o3YfMU80V+qJyyb/JkiHQTqetOmq3tSffX5inC+p+0PmKyo1s3eBdnLGIwxxF18wKPmIuMpsXA4CILYEHwyZYmSRA51VxHZDLBsX1zyBDNCmTAAJE9NNaxruDViSCVJiSpiYMieRg61AvDjIJusQDI3kEbEGdD5iupYsKqjkeFi5rTNFmK3btokN3bZc42b6mD8afNRWkA0Gg/evnUpT7skdYrmlTeh1RtLUU11GHOoppTSGPxN8AFsuw2FWMLwnE3bDXxh5tgAqJDPcEkMUUa+GJIMTymqlRXbAIEEqVkoykgoTqSsbSelXDKv2RE1L/ABID3JMQVYmIKkGehkQDTmwZ5GpOI4zF3+5W84cWZyuSczBiDLyfERAExMbzvVxFG8g+RkU5Uv1ZMLa/JGJi7RA8Q9DRF2UY+wcQE6d3MT/oblGu3UVk8SEoY5a/WtTsLF23i8IDFy9alNWAJAYRA0OrLvymtsF2ZY6pf0DWHOh9akLqILqWUEFlDZSwnUZht61XIZGKsCCDDKdwRyPnTu+FKqZW6LvEMb39xnEi2py2bewS0si2ImAcu/mTVXEXIH4x0qPvhS7+h23YJUqPR+A9pLS20t2WGRVAidfiDrPrQr254gt66gUgsoaYO0kQPXQ0PPlbcfEU6zaA1Bmrc7RzxwMsrstBq7mqKaU1lR1WS5qWauIy883wio5ooLJc1aOAt6cpPXpWZZTMQK1hWcy49yd0jmD6GmTTQ+hGmtNzVBZ2zlnxT8KRt7xEdDv8qhRyDIpM070yTmDx9zDFsgW5Zf37LiVI/EGJAYbSasC5wy7qy3sM0EnL40mCYUbwCsAf/YBy8NeahuYZDuvy0/Ct44tKmYywU3adGpY4Hw4kf+oaZog2yJHeBd45iddtm2Bnlq1wlPevXrpAHuW2UE5Un3xHvK53+3GsChy/aWcqBiRvz8oj1qu4IMNoYmDoY668q1UlvRk4PZyC1MRwgnVMSo8wke855En7Sj0QfF1vhvCrpy28WyHQfxUcf5a7kBSdHOnN+kChbh9pLjhGurbzSFZvdDkeAPGqqTAJ1iZou4zwFOHAYhC10tHcSoK2jlBN24wGRmB9wbE66xVLXoZyWV1bs7i/7P7yk91cUxuuaGHgdyDsAY7ob/bJ6A5eK4HjrPvW2IHTxDQoN/8Ac4G/2W5Cabw7GeEOzszhy1xixzEa3XltySmERfRyK3sFxnF2lA7xncKJV9c1zKzRrsTicTaTf/4WGwNPhxkg4mJEFxjiPfQjz5bkfirD/pPSrVjGA+63w/oaMl4sl2Bds2rgYwj7Egnubbgnkba4u9M6IB97WieE8NxBBXPZLBG20AuS6g7we5w7GJ0FwncyM5enXQuPqu6B2aU1pYrsdfVS2GvLeUAEgEE+4X216ooAkksToBWBfv3LTFbyFSCQfVfeHQx5GsZYMkdEcaMti7NKaqJjkP2voanVwdiD6Vm00aWSTSmmTSmkMcddDWSc9m4GRipUyrD99JBHMGtSao3cWMxVgMu39a0g2noZzSapm+vbCxeg47BLcYR/FtxmOs6gwYjQDMRWtbw/DCFud24zCy8EbC7i3VSZn7QIPkANooAxljIdNjt+lFFiyrWrAtrcu23TumCCXUXCGdPJrd9TcttsZZTEAt1wlmOLEhk2bCTCYThwZQLLkhkTWRqMTdw2viGodtesrvpVbBY/BDucmEOpwsZiNM4vWlO51UqQf91Z6OzO2vjDMHKDxLcuBO8hDqpZ7drEWww99blswxAMd22QxIUBoLIoPhLC6MSqq3NRdR8p0/h3zMG04GtIx16tl3D4jh11VFzDNbi3ZYESwhsNduhRHQrcBEQTl3nSjiexKuX9ixCXShZSmdc4ZFVcpB+01zMSSQADoOVUjjLYYeIQFAUcz3d7EG3oNdU7sf8AXU3DexmIxd97rI1i2bjPndSH8TEgKmjT5mB67VEkuxonKOtmbjOzmLttlaw51gFVJB8eQGfMkRzjXSs/2a7oO6fXbwtrIU/g6/zDrW1xG/jsGZXE4hbbM3dd883GRTo5tOSUGvMD0qp/i/H7e1v8FtztH3fIfKsnGJspza2Q3C8AxLjMbZt2xq127CIogGSW/wBw2nf1irewyG5ktXDcUDW4VyhjzKqdQuwE6mCdJp2KvYnEEG9duPG2djAjmF2nXeKsYeyEH4ms5yilSNYRk3chG6lvTn9fU1YV5AI513Foi4Nc1sd9iLue25HiWysKI8iVJ6Q4NRrpoKznCqNITzWSTSmmTSmszQjmrvC+GvfLBGtqEALNccjeYAABJ2rPmo3sqTJUE+daRq9TOVtaFzE2ijshKkqYJVpU6Tofj61FNMFKaT+Bq61Ki3ns3RcSJkkTsZ3Bj1NGVjtThrgTvXK+JSbbK8HxCTmQFY8tDAjczQuxEaxHnVLEG0OQPodK2hiNaGGJgqWoXcR7dhVZMLbXNIy4hkAKrkWcqEaNmzb6baGhqzxPELbe2xL2nMtbeSsk5swAIKGdZUjXrTMGykSFg/vnViaJYrsIYEUjKs3ipkR5g6g+RHMHb0JrcwvHkjxocxkltGkw2sSp1zvMET3r6gsSaT4ZDy+WlRnAr1P0/SnHFocsLMbGI43hzIzMwPvAjxMDAbMRChGCqDlMlVFtVtKCTYs37l5GuJhr7W2ZgbgA8edYcyDAZ1HdyPDatyBJM1i2b160AEZWVTmCuiOFbTxqHBCtoNRG1E/A+JYviSYnDvdObug1sqcighxKt3YGYMDGsgRtW0cTMc08PICuOxNy3iXdL38TNLXLRKjMYLKuslVaVE/doy7NcY9pyHHi2qJDJiGGTvDbbS0WjLoxzkSCSo0NAF3Culw2nUq6sVZTyIMEf8VtcE4xicExNhsyEy1tgSrecTo0cwZ2mQIqFOnqaTw80dNwv4vwPCPaY4eMZe8JVDiF7zLMM2dIe5pzctt8Di8S7BYlEW9h1YyoZrLMvfWyQCVkQtyNdoPka0cV21weKVBibV6zcWSHQyFkagFWVypgaRyHSrnDeI3jHsWNs4kf5N3w3Y8hCn5p8edaNRkc8ZTgANnEmSlwFXBggiDPQg7GrM0X9o+K2bttxj8Dct3ApC3VUEhvsgXF5Ex72h5gUEYRjkE71y4uGo7Hdg4rmtUWZrGVCzwd5M/nWsQelR5BOaNY3qIujSSsg4lcEBee/pRN2Vt3sHh7+Nc3LS5VFpCBlvO0gZ7ZE5fd8QKmJg1h9lrAvYy3njKGztmEiF1AKyMwLZRA6+tF/wDaFxN2woS4yZjdQ5QACAEbMdLrSBcDrt06gnow40rOTGnmko9zI4t2swuKWb+De3eIym9ZdSwXmNcucHbK3I0OcQxaMALZvmCSz3bk5pIPuAQmw+02w6VBZsAqWJI9KfbwqkSG09KTxC44SWx3h3EDZOZbdlmkEG4mYqRqCoJgfI7UZdme1V3FXWw+KxFxTeGW1ctFU7t9dPCNSdIknURzoNsWbbTE6dagv2ip3PUEaHyIPIiiOJToWJhKSsKuP9icRbZmF5cQ0BmLORcgtlUnvG1kz9r7JofzXbQ/iWmVeroy/Ujz+tFHZ/teuUriXY3S8967HKwKC1pkWUK25HQzvJkalvjOHsoCL9srAMWmsidpBtL4vhJOnOtHCMjKOLKGjQDLxBeYIqa+M6EA7jQ0zjWMt37n8G0FHXLlYnWZAYrGszAPWn2lgAdK5pxUXodkJOS1IbK3GZWvMWyKETMZIVZyqP8ASJMDzrQtMuuYHyiq80pqJNt2yoxSVIkmlNRzSmlRQ2acqEgkcq1cH2NxxgsLYHRn1H8qkfWtFewuI5vbH8x/KtOHIx40e4NOAAIMn00quMQpMTrVzj2CfCvkuQSRIK7EflWKcZ0CijIx510Ltm0tzEWrdwkIzKpI3GYxpO1eqcB7L4fDAhU7wndrgUtEbaAADcbcq86/wfj3Rbgw51Gnjthj00LaH61rJ26xeG/g4iwrXEgHPo20gnQg9ZEVvD8VqcuNc3+LIv7RuF28NetPYAQXVYsg90FCBmA5A5h8j1ofw17MJNM4xxW9i7veXTLbADRVHQDkKdbAVY+tZ4lN6G+DaWpYsXLaplaw7OCT3i4gIGB2BRrbgEdRFce4C0ojIsDwu4c5vtHMFXTblTbAZ8xRHcKJYqjEKOpgaf0qvcvSPCwHxqXbWqLVJ6MnvPCk1tf2f2yO8uQCpKpspMqQ5ylpAIlDBGu0jmM3b3giZJ51pYDtE1nDdzbXxEklzECTyHPTrz15CrwqTtmWO3JUhnai8DjbpXk6g6k+JVVXEnU+IEVGLwzZedZqXPFmYzrJJ3PUnqamuWpMhhr1NKerKg2lRcu3VGjc+opj4VDy+VRl1CgMQ0fGo2xx5AfGoSfQttdS/du3WTu2xF5k+41xivl4SYpqLAAHKqtvGjmIqY4heooeZ7jjlWxaUM53n1NMv2yND0qomKzMFRCxJgAbn0A3rc/w7iu77w2SBvllS0dYB+m/lSyMHOPcy+yeLW3irZcAq0owIBBzKQoIOkZ8lFPajCTg3aS5XuyGJJLZdmJbWTbe7cIJ0DL8PP3A5GRWkONOcOcOwzLCgE8srhh8hpPREGwM9MZKqZyTg8yaK2HMo48p/fyFcwbeKOu/yp+CUQ3npSUokwZP7+VYvqdK6Mt27YXYRTmSRqJFU/bv9P1qzhcb935GoplqS2RG3DwRIkD6VEMD/q+n9avXMQTMaA8gdPOu37DpGdGWRIzKRI6id6LYsqKy2winKJMfOqntTdfwq7cvAbmqzPbbyPWmvkUvhlqxdzCefOp1tEiQNPUVRw9rLJzTXbmLUban986TWuhSlpqX7irHhYk9DUc1m+0OxAXcmAAJJJ2A6mtP+4Md/kv80/8AKqWG2Q8VI9cwWPDaE13G48KIn67UBYFeI4dctzCm6oGjLcXMPXUlvlNDPGu0F6+SreBdjbE/JidT6aDyrpbS1OJRb0C/D4BeJYoH3rFiczT/AO47QcgP3QAJP6g0Y4zh1hrBw720yRGUAAAcojaORFebdje1qYW21q4rQWLAqAdwAQdd9N6k4527a6CLKFCdM7ESB5Ac/jStbjcZbIVviWPNx8JYuZ+7YqLpHiCgkDM20x5Tod60P/53cuA3LuJZrjalspInzJaT9K0+xttLeHtkRLKHY/eZhJJPMzp8KL7ON8MaRToWfXQ8ftcJOGxtqziCvdlgc0eFl1gGerCCPOtD+0fh9hDau2Qq5pVkXQaCQ4HLmD6itHtzghiL2HtgwzXCk9Fy5mMc4yj51scI7E4OyQSM7dbni/7Yy/SllRXE2ZR/srKrhrpMS10j0hEj8/nWb/aRwayrJdsjK7uEZRoHLAkNA+1I16zTe2HBnwROIwrtbRiA6KfCCdmA2idIjSdPKl7BigMPjsU2eyGRjrJtgkFWKAAATl2nlNHwC3zBTw/sBhsq5lLnmzOwn4KQBQr284BawxRrIKqSVKySJiQROo2P0o4XjAIDBlK8iDpHrtQd2t4tZxF6zaNwZBcBuODooOm+0wT6aU5LQmEm5AXNavG+AXsL3XehZugkBTJBESrCPe8Q2mibtPwLArhxcwxK3JUIA5fvCWAgAzrrMitrg3A7jZb2KuZ7wELoItzvlAEZjzapUDR4nUDcN2LxTpmhVJ2ViZ+MAxWXj+C4izJuWmAH2hqvrI2HrFe32FYaaEV3iFu2w2ExrTyohYsgE4F2ZwOKwyFQ4uFYZg5kMNG0Ph38oihDtHwN8JdyOQymSrj7QG8jkRI+dbtrF3MJicSbNp3sLDOEBi3KAzOw3OnSOlV8ZaxXEmD27UW1kBmIAkxJnnsNgYihpFRbT+Al7E8KtWLS3GAN24AST9kHUIOgiJ6n4QVYjHqEgRQTw7s/xNFCC5ZgaCczEDp7oqfG8C4iUYe0WgY2ClSfLNGlWqMmm3uY3D+yT469iLlt1t2hccBipOYgy2USNJO886y+0HZa/hfE0Pb/AMxdh5MDqv1HnRf2L7QW7dlcK38O7bzKUOknMZg7E9QKLMRxG13ZDlcsGQ0REagzyqMtmmdp0eELOwnXkOfl50WcD7B37wDXGFoHZYzP8RIC/vSm9kMNabF3WXVEJNsH7pcgNr0X8a9QwOLA2oUdLHPEp0jy/tH2JuYa211bgdV1YFYYDruZj4UKTXunaC6r22DRDKQfQiD9K867Fdk7eJQ3bzNlDZQqmJgCSTv8o2pOPYI4mmoNcPOa9aViYNy2DJ5F1B+hr3DiNizetFbigrER59QeR86x8X2PwjWDaRFHRlHjBj3sx1PxoGwtvHnENgkxBzCdWOmUAENmgtqCvzimkkhOWbYm7O9l0v4q+juzJabKCNC5JMSRtAGsRqaLL3YXCC2T3fkCHeR56sayOyTHCd9h7sLfz5iCfeUqsMp+0ND566xW1jePJbQ944HqdT6DcmqUVREpOzybF2Mjuh1ysyz1gkT9KOOz/wDZ6t+xbvPfaLgDRbC+HMJAJafwqp2RweDxLX3xUl2uHLbzlYU+LN4dTqSP+mrmE46MDffCWM9+ySCgUgujtqUB2YT8vnUKJq5PZEeJ4Db4firF3vC1vMVJeJVmRsrSAAR8NKL/AO8h976ig3jvDuIY1gWshFHuobik6/aMEyY+VZn+Bsb/AJa/ziquuhDWbdnp3EuKKoJDALGp2A6+grzZMNa4hxDKr5EyyzCAz5dyoPMyNxspNd4Mt7id3ubt3JbVc7BBvBA0BmTJ5yB0r0G52RwndBEthCPcuoALqsPtZ9yfU686NGJLLvuMw3Yzh9sAm0G0+2Wb55jH0od7ZWMEyez4TDWziSRlFpVDKAQSXIAgRI16/Gh/h/HcXiLtvDNfIDNlLqqhoAJMGNDANelcDwVmwkW7YA59WPVjux8zQkmgbcXqeVJwbiFjVbV5PJGVv+1GM/EUTdl7eJvpLY5LbAkNaNoG4sHdh4cvXnoRXoUh9xp0FC3bXh9t7T3AuW7aRmS4phlIBMZhrBjUU0gcr3BPtFbbBYuzdfE+0bnbKVEQRlmB7xI2kg1uWO1aP4rSXrp6Jac/WMv1rT4BwDD21V3TvbrAFrlzxMTHItOUelELwuwEdKFoS2meZdse0N25b7lrFy1mIk3BEgGYXrqBVzgvF8Vi8M2HSwpXJ3Rus0KPDHuhZLRrH1FFXatUu4e4jIIKkjT3SASGHmDWF2Ix4XCIFWILA+ZzGT9aKdjtZSpgv7No8V24WHMKIHxJk/hRFw/szhVEdxbEaSVBPxLSavNxAxzqk2NIM601ElzbMLtZ2btYeMTYUA2mDlV0VlVgTpsDGvwp9rtXYYZu9gCAZDCCeR0iapdt+PHJ3Ma3BqeQWYPxO3xom7Jm2uAsJ3YIa2paQNSwlp6ySaNmPeNsr2e0lphC3rf8wmoMX2itqI7zMx0VEOZ2J2AUVgf2icMw1oW2s2hbZmIOXRSAJPh2Bkjbzq/2NFlMMjpaHeHMGuEAtMnQHktCetA4pKyu68RTD31GE0vlmZg6lgGULGUGWhQAPwre7KcRT2azk0yqFI6Mohp5zMn4zUHF+2q2BlKMxOwEAfjp8qALPHLiX3vIAM7FmT7JkzHr5/8AFJunqVTkj21MTPi/CsnjfFkVWd2ygbn+g3PlQU3bxMkLbfP0JGWf9w1j4USdmez4vrbxOLYXWdQyWsv8K2GEjwn3mjmZj60WuhOV9Sj2a7KYbFA4rEHMbpLhAxCoJMKcupaN9Yn5nev8E4ZYUs+HsEDdnVTHxafxoe7bIcAUu4Nu6Fxir2gB3eYCcwXZTprETp8Wdk7JxYGIxbd6c5CIQMi5Y8WXYtJ3MxFC3Kd1YP8AEuFXL95r3D8M4s6ZWUqgMCCyBmUgE9K7hr+PtXES67WlJA7y8sovmzwfxr1y3dAEBRTb9tMpJEzvMRHSKVBnsEMf2dvXbTZ+JLEbLaAVhHNg0x+4ob7K9pbdi2bDkjxEgqCwaegAn6VsHs7abGG2C62DbNw2FYhCwYCIBgLrMflpRngMDYRYtWlT/aAPwFPZ2K1VAuO0twLKYXEsPvC0RPwaD9KD8N2muLjGxAtyWHd93ziVEDT3pUcuor18YiJBUV5/2hW2nEcPdyCXJDRzYeFWPn4h8hQ7CLRLxTs7ieIOl26qWIXLl99omfEdBz2151bwPYSzZ1uL3h/17fyjT5zW9Y4kdopmKxxPWnl1Jc3Qy/2VwjpBs258kA+RAkV5ti7AwGOQiSikOOuQypHmR4vkK9DPEiqnyFeePxyxdxJvYmw1y3lyqocqV1kMYPi3Ok8+dKSovDbZ6th+LowVhDAiQRsQeYq3/elvoPr+teVce41btXEXBWzZAWXUmUbNBBCkmDvJEb1T/wAX4n/6/wCVv/Kk3EMkuh//2Q==;clipPath=inset(0% 0% 0% 0.57% round 50%);" vertex="1" parent="lwWAjvL6sQFBWh3Ai02s-1">
          <mxGeometry x="463" y="588.92" width="265" height="191.08159392789375" as="geometry" />
        </mxCell>
      </root>
    </mxGraphModel>
  </diagram>
</mxfile>
